<?xml version="1.0" encoding="UTF-8"?>
<svg version="1.1" xmlns="http://www.w3.org/2000/svg" width="800" height="800">
<path d="M0 0 C1.24136719 0.18369141 1.24136719 0.18369141 2.5078125 0.37109375 C6.11507698 1.2813909 9.05765697 3.18262698 12.1875 5.125 C12.84371338 5.52662354 13.49992676 5.92824707 14.17602539 6.34204102 C26.17003683 13.74678422 26.17003683 13.74678422 30 17 C30 17.66 30 18.32 30 19 C30.825 19.061875 31.65 19.12375 32.5 19.1875 C36.91070886 20.21141456 40.48441302 22.13577812 44 25 C44 25.66 44 26.32 44 27 C49.78440733 30.15407321 54.44253476 32.11085217 61 33 C65.38781063 34.53315266 69.69622713 36.24613166 74 38 C74 38.66 74 39.32 74 40 C74.67546875 40.04898438 75.3509375 40.09796875 76.046875 40.1484375 C76.93890625 40.22320312 77.8309375 40.29796875 78.75 40.375 C79.63171875 40.44460937 80.5134375 40.51421875 81.421875 40.5859375 C84.77743662 41.12486103 87.11379713 42.47381705 90 44.1875 C92.49144843 45.19965092 93.52069137 44.95973237 96 44 C96.99 43.34 97.98 42.68 99 42 C101.33199388 41.92094936 103.66832622 41.91201231 106 42 C106 41.34 106 40.68 106 40 C107.8708878 39.32187886 109.74694293 38.6580054 111.625 38 C112.66914063 37.62875 113.71328125 37.2575 114.7890625 36.875 C118.01774506 35.99516436 120.67244294 35.84011738 124 36 C124 35.34 124 34.68 124 34 C124.55349121 33.75354736 125.10698242 33.50709473 125.67724609 33.25317383 C139.04260363 27.36057466 139.04260363 27.36057466 152.125 20.875 C154 20 154 20 156.0625 19.5625 C158.45252319 18.8686223 159.26230183 17.75865987 161 16 C186.19841776 -2.59926837 186.19841776 -2.59926837 199.81640625 -2.9296875 C202.03651885 -2.93632581 202.03651885 -2.93632581 204.30419922 -3.49389648 C209.02076696 -4.3793742 213.7765142 -4.19078984 218.5625 -4.1875 C219.63991455 -4.18741943 220.7173291 -4.18733887 221.82739258 -4.18725586 C229.1074064 -4.13493713 235.89874695 -3.67447791 243 -2 C243.8353125 -1.855625 244.670625 -1.71125 245.53125 -1.5625 C248.05820166 -0.98673886 250.02428281 -0.13978361 252.3125 1.0625 C253.35857422 1.60583984 253.35857422 1.60583984 254.42578125 2.16015625 C254.94527344 2.43730469 255.46476562 2.71445313 256 3 C256 3.66 256 4.32 256 5 C256.70125 5.0825 257.4025 5.165 258.125 5.25 C261.68527538 6.17876749 264.07030552 7.80272914 267 10 C267.33 10.66 267.66 11.32 268 12 C268.639375 12.28875 269.27875 12.5775 269.9375 12.875 C272 14 272 14 272.9140625 15.83984375 C274.12789485 18.25440954 275.52290775 19.78937736 277.4375 21.6875 C278.03433594 22.28949219 278.63117188 22.89148438 279.24609375 23.51171875 C281.03816214 25.2197688 281.03816214 25.2197688 284 26 C284.6875 28.0625 284.6875 28.0625 285 30 C285.66 30 286.32 30 287 30 C287.12366943 30.59047119 287.24733887 31.18094238 287.37475586 31.78930664 C288.17462163 34.61741464 289.67954164 36.85684779 291.23754883 39.3269043 C308.83683922 67.36188964 313.11219833 99.4141228 313.5625 131.875 C313.60655038 134.74284808 313.6531103 137.61059026 313.70530701 140.478302 C313.73710034 142.24553201 313.76404039 144.01285768 313.78553772 145.78024292 C313.74103712 150.0253149 313.74103712 150.0253149 315 154 C315.61488281 153.57847656 316.22976563 153.15695312 316.86328125 152.72265625 C318.07564453 151.90087891 318.07564453 151.90087891 319.3125 151.0625 C320.11300781 150.51722656 320.91351562 149.97195313 321.73828125 149.41015625 C324 148 324 148 327 147 C327.33 146.34 327.66 145.68 328 145 C328.99 144.67 329.98 144.34 331 144 C331.66 143.01 332.32 142.02 333 141 C333.99 140.67 334.98 140.34 336 140 C336.7115625 139.01 336.7115625 139.01 337.4375 138 C339 136 339 136 340.8515625 135.625 C346.64535995 133.93953165 350.98694243 126.37342052 354 121.4375 C356.28039585 117.10551056 356.43944139 113.83385534 356 109 C355.46375 108.731875 354.9275 108.46375 354.375 108.1875 C340 101 340 101 337.8125 99.875 C335.3730174 98.69731874 333.19756222 98.01975622 330.5 97.75 C328 97 328 97 326.375 94.8125 C325.92125 93.884375 325.4675 92.95625 325 92 C324.13375 90.63875 324.13375 90.63875 323.25 89.25 C321.12117237 83.71504816 322.26546643 79.01996733 324.25 73.5625 C326.35857507 70.47494365 327.4396173 70.00243785 331 69 C334.26953125 69.171875 334.26953125 69.171875 337.8125 69.75 C339.66101563 70.04970703 339.66101563 70.04970703 341.546875 70.35546875 C345.42902855 71.08007886 349.19101828 71.9611868 353 73 C353.80179688 73.13664062 354.60359375 73.27328125 355.4296875 73.4140625 C361.40647643 74.77655238 367.03895159 78.35601221 371 83 C371.44730469 83.47953125 371.89460937 83.9590625 372.35546875 84.453125 C380.53124285 93.44857825 385.53162297 102.85154365 385.24609375 115.1796875 C384.53242089 123.35860501 381.07332298 130.24318725 377.3046875 137.43359375 C375.91289326 140.01461067 375.91289326 140.01461067 375 143 C373.66666667 143.66666667 372.33333333 144.33333333 371 145 C366.82085772 149.09085054 362.78203657 153.47974273 359.75 158.5 C357.70735576 161.41806319 356.25877377 161.79939914 353 163 C351.86649466 165.01669827 351.86649466 165.01669827 351 167 C350.01 167.33 349.02 167.66 348 168 C347.67 168.66 347.34 169.32 347 170 C346.01 170.33 345.02 170.66 344 171 C343.67 171.66 343.34 172.32 343 173 C342.01 173.33 341.02 173.66 340 174 C339.45601562 174.56460938 338.91203125 175.12921875 338.3515625 175.7109375 C335.04470828 178.92990191 331.2819391 181.1929255 327.375 183.625 C326.54266846 184.14553955 325.71033691 184.6660791 324.8527832 185.20239258 C319.02979272 188.81206509 313.14968161 192.31270369 307.1875 195.6875 C306.08704346 196.32002686 306.08704346 196.32002686 304.96435547 196.96533203 C300.96639818 199.18600801 297.63687696 200.57052474 293 201 C292.67 201.99 292.34 202.98 292 204 C288.02943602 206.77382858 283.90232302 208.61279038 279 208 C279 208.66 279 209.32 279 210 C267.29178757 215.84092129 255.42189347 221.21680416 243.3203125 226.18618774 C241.90701391 226.76687211 240.49504305 227.35079932 239.08447266 227.93807983 C237.07479136 228.77270466 235.05995466 229.59336644 233.04296875 230.41015625 C231.87789795 230.88590088 230.71282715 231.36164551 229.51245117 231.85180664 C225.59525573 233.1323078 222.09316398 233.61120416 218 234 C218 234.66 218 235.32 218 236 C214.34543185 236.75241109 210.68266103 237.40049704 207 238 C207 238.66 207 239.32 207 240 C205.35 240 203.7 240 202 240 C202 240.66 202 241.32 202 242 C196.06 242.99 196.06 242.99 190 244 C190 244.66 190 245.32 190 246 C188.02 246 186.04 246 184 246 C184 246.66 184 247.32 184 248 C183.38511719 248.04898438 182.77023437 248.09796875 182.13671875 248.1484375 C180.92435547 248.26058594 180.92435547 248.26058594 179.6875 248.375 C178.88699219 248.44460938 178.08648437 248.51421875 177.26171875 248.5859375 C174.72775559 248.89564426 174.72775559 248.89564426 172 251 C167.24697047 252.58434318 162.58209874 253.88555249 157.6875 254.9375 C153.73745465 255.80729475 149.87576895 256.84551563 146 258 C146 258.66 146 259.32 146 260 C143.69 260 141.38 260 139 260 C139 260.66 139 261.32 139 262 C137.9275 261.95875 136.855 261.9175 135.75 261.875 C130.88081817 262.03730606 128.97038115 263.35307923 125 266 C122.31740221 266.40920983 119.69433167 266.726662 117 267 C111.34050924 267.60320591 106.00179702 268.62082541 100.5 270.0625 C99.40945313 270.3419043 99.40945313 270.3419043 98.296875 270.62695312 C96.53012276 271.08026455 94.76489225 271.5395002 93 272 C93 272.66 93 273.32 93 274 C90.03 274 87.06 274 84 274 C84 274.66 84 275.32 84 276 C79.48597275 277.19520343 75.25088345 278.13395381 70.5625 278 C65.53504771 277.85788121 60.87663514 278.85974293 56 280 C56 280.66 56 281.32 56 282 C50.65022193 283.32560872 45.64870476 284.11659535 40.125 284 C33.91175113 283.87089353 28.08062557 284.79249989 22 286 C22 286.66 22 287.32 22 288 C19.02298944 288.51720556 16.04457999 289.01357696 13.0625 289.5 C12.25103516 289.64308594 11.43957031 289.78617187 10.60351562 289.93359375 C4.94916937 290.8365692 -0.55872935 291.06718137 -6.27734375 291 C-12.86275866 290.92383292 -19.23754695 291.32398702 -25.78955078 292.06787109 C-42.88667226 293.99415404 -59.92946154 294.33668255 -77.125 294.375 C-78.85644257 294.38623901 -78.85644257 294.38623901 -80.62286377 294.39770508 C-100.5337369 294.50386432 -120.32160499 293.44752054 -139.63912964 288.27297974 C-143.52751034 287.24262787 -146.97875845 286.82059076 -151 287 C-151 286.34 -151 285.68 -151 285 C-152.093125 284.979375 -153.18625 284.95875 -154.3125 284.9375 C-160.34377173 284.20382115 -165.36200676 280.77129753 -170 277 C-171.109375 274.97265625 -171.109375 274.97265625 -172 273 C-173.08548926 271.87708007 -174.2138671 270.79451257 -175.375 269.75 C-181.79009456 263.50828637 -184.94323146 255.29821648 -185.375 246.375 C-185.11841377 235.82289127 -180.8105451 226.59898364 -175 218 C-174.59136719 217.3915625 -174.18273437 216.783125 -173.76171875 216.15625 C-173.22998047 215.36734375 -173.22998047 215.36734375 -172.6875 214.5625 C-170.87183967 212.04495676 -170.87183967 212.04495676 -170 209 C-168.67845575 208.31025874 -167.3435263 207.6458787 -166 207 C-164.36653066 205.4328642 -164.36653066 205.4328642 -162.9375 203.625 C-162.42316406 203.00625 -161.90882813 202.3875 -161.37890625 201.75 C-160.32617979 200.41396188 -159.3354991 199.02880638 -158.375 197.625 C-156.68457172 195.62722113 -155.48293192 195.57935078 -153 195 C-152.67 194.01 -152.34 193.02 -152 192 C-148.58078453 189.72052302 -147.09689823 189.67486895 -143.0625 189.625 C-142.02222656 189.59664062 -140.98195312 189.56828125 -139.91015625 189.5390625 C-136.29191599 190.1121529 -135.25853995 191.17682507 -133 194 C-129.54863007 198.84020948 -128.39570081 203.01166466 -129.37890625 208.890625 C-130.31533983 212.07096547 -131.96738296 214.41303285 -134 217 C-134.66 217.99 -135.32 218.98 -136 220 C-136.90105469 220.20302734 -136.90105469 220.20302734 -137.8203125 220.41015625 C-144.41531284 222.1948248 -150.0445251 230.62641355 -153.625 236.125 C-156.17909718 240.65923995 -156.57049657 243.86553083 -156 249 C-155.13375 249.37125 -155.13375 249.37125 -154.25 249.75 C-151.69728947 251.16817251 -150.02214391 252.91045129 -148 255 C-145.6921509 256.15392455 -143.52769669 256.53437166 -141 257 C-141 257.66 -141 258.32 -141 259 C-133.50298299 261.436168 -126.87690257 262.41136629 -119 262 C-119 262.66 -119 263.32 -119 264 C-112.4 264.66 -105.8 265.32 -99 266 C-99 265.67 -99 265.34 -99 265 C-97.35 265 -95.7 265 -94 265 C-94.49154012 257.62689818 -96.89741476 251.41227971 -99.5625 244.5625 C-110.07652449 216.77354833 -118.57190218 188.60744304 -122 159 C-122.14139404 157.80238037 -122.14139404 157.80238037 -122.28564453 156.58056641 C-123.17058786 148.15065008 -123.24227866 139.71690099 -123.25 131.25 C-123.25100708 130.48020813 -123.25201416 129.71041626 -123.25305176 128.91729736 C-123.24146116 115.75685454 -122.43171776 102.96042679 -120 90 C-119.86078125 89.24170898 -119.7215625 88.48341797 -119.578125 87.70214844 C-116.12018997 69.58801193 -109.18178217 53.00083243 -99.90771484 37.13085938 C-98.34415271 34.43919315 -96.98756172 31.96268515 -96 29 C-95.01 28.67 -94.02 28.34 -93 28 C-92.87625 27.38125 -92.7525 26.7625 -92.625 26.125 C-91.71459707 23.02963003 -89.73357339 22.56204193 -87 21 C-85.34329588 19.09663191 -85.34329588 19.09663191 -84 17 C-81.33333333 13.11111111 -81.33333333 13.11111111 -78 12 C-77.67 11.34 -77.34 10.68 -77 10 C-76.01 9.67 -75.02 9.34 -74 9 C-73.443125 8.360625 -72.88625 7.72125 -72.3125 7.0625 C-69.53148456 4.58213488 -67.45840876 4.24325174 -63.89453125 3.49609375 C-61.43237086 2.85136309 -59.88779098 1.67803642 -58 0 C-54.69733925 -2.20177383 -52.89132217 -2.48605179 -49 -3 C-47.84757813 -3.16757813 -46.69515625 -3.33515625 -45.5078125 -3.5078125 C-29.95152336 -5.42585754 -14.9932761 -4.33603455 0 0 Z M312 152 C312 153.98 312 155.96 312 158 C312.66 157.67 313.32 157.34 314 157 C313.67 155.35 313.34 153.7 313 152 C312.67 152 312.34 152 312 152 Z M-93 262 C-92 265 -92 265 -92 265 Z M-92 265 C-91 267 -91 267 -91 267 Z M75 275 C79 276 79 276 79 276 Z M71 276 C75 277 75 277 75 277 Z M46 281 C50 282 50 282 50 282 Z M40 282 C40 282.33 40 282.66 40 283 C41.65 283 43.3 283 45 283 C45 282.67 45 282.34 45 282 C43.35 282 41.7 282 40 282 Z M9 287 C9 287.33 9 287.66 9 288 C10.98 288 12.96 288 15 288 C15 287.67 15 287.34 15 287 C13.02 287 11.04 287 9 287 Z M2 288 C2 288.33 2 288.66 2 289 C4.31 289 6.62 289 9 289 C9 288.67 9 288.34 9 288 C6.69 288 4.38 288 2 288 Z M-6 289 C-6 289.33 -6 289.66 -6 290 C-3.69 290 -1.38 290 1 290 C1 289.67 1 289.34 1 289 C-1.31 289 -3.62 289 -6 289 Z " fill="#FEFEFE" transform="translate(300,175)"/>
<path d="M0 0 C1.24136719 0.18369141 1.24136719 0.18369141 2.5078125 0.37109375 C6.11507698 1.2813909 9.05765697 3.18262698 12.1875 5.125 C12.84371338 5.52662354 13.49992676 5.92824707 14.17602539 6.34204102 C26.17003683 13.74678422 26.17003683 13.74678422 30 17 C30 17.66 30 18.32 30 19 C30.825 19.061875 31.65 19.12375 32.5 19.1875 C36.91070886 20.21141456 40.48441302 22.13577812 44 25 C44 25.66 44 26.32 44 27 C49.78440733 30.15407321 54.44253476 32.11085217 61 33 C65.38781063 34.53315266 69.69622713 36.24613166 74 38 C74 38.66 74 39.32 74 40 C74.67546875 40.04898438 75.3509375 40.09796875 76.046875 40.1484375 C76.93890625 40.22320312 77.8309375 40.29796875 78.75 40.375 C79.63171875 40.44460937 80.5134375 40.51421875 81.421875 40.5859375 C84.77743662 41.12486103 87.11379713 42.47381705 90 44.1875 C92.49144843 45.19965092 93.52069137 44.95973237 96 44 C96.99 43.34 97.98 42.68 99 42 C101.33199388 41.92094936 103.66832622 41.91201231 106 42 C106 41.34 106 40.68 106 40 C107.8708878 39.32187886 109.74694293 38.6580054 111.625 38 C112.66914063 37.62875 113.71328125 37.2575 114.7890625 36.875 C118.01774506 35.99516436 120.67244294 35.84011738 124 36 C124 35.34 124 34.68 124 34 C124.55349121 33.75354736 125.10698242 33.50709473 125.67724609 33.25317383 C139.04260363 27.36057466 139.04260363 27.36057466 152.125 20.875 C154 20 154 20 156.0625 19.5625 C158.45252319 18.8686223 159.26230183 17.75865987 161 16 C186.19841776 -2.59926837 186.19841776 -2.59926837 199.81640625 -2.9296875 C202.03651885 -2.93632581 202.03651885 -2.93632581 204.30419922 -3.49389648 C209.02076696 -4.3793742 213.7765142 -4.19078984 218.5625 -4.1875 C219.63991455 -4.18741943 220.7173291 -4.18733887 221.82739258 -4.18725586 C229.1074064 -4.13493713 235.89874695 -3.67447791 243 -2 C243.8353125 -1.855625 244.670625 -1.71125 245.53125 -1.5625 C248.05820166 -0.98673886 250.02428281 -0.13978361 252.3125 1.0625 C253.35857422 1.60583984 253.35857422 1.60583984 254.42578125 2.16015625 C254.94527344 2.43730469 255.46476562 2.71445313 256 3 C256 3.66 256 4.32 256 5 C256.70125 5.0825 257.4025 5.165 258.125 5.25 C261.68527538 6.17876749 264.07030552 7.80272914 267 10 C267.33 10.66 267.66 11.32 268 12 C268.639375 12.28875 269.27875 12.5775 269.9375 12.875 C272 14 272 14 272.9140625 15.83984375 C274.12789485 18.25440954 275.52290775 19.78937736 277.4375 21.6875 C278.03433594 22.28949219 278.63117188 22.89148438 279.24609375 23.51171875 C281.03816214 25.2197688 281.03816214 25.2197688 284 26 C284.6875 28.0625 284.6875 28.0625 285 30 C285.66 30 286.32 30 287 30 C287.12366943 30.59047119 287.24733887 31.18094238 287.37475586 31.78930664 C288.17462163 34.61741464 289.67954164 36.85684779 291.23754883 39.3269043 C308.83683922 67.36188964 313.11219833 99.4141228 313.5625 131.875 C313.60655038 134.74284808 313.6531103 137.61059026 313.70530701 140.478302 C313.73710034 142.24553201 313.76404039 144.01285768 313.78553772 145.78024292 C313.74103712 150.0253149 313.74103712 150.0253149 315 154 C315.61488281 153.57847656 316.22976563 153.15695312 316.86328125 152.72265625 C318.07564453 151.90087891 318.07564453 151.90087891 319.3125 151.0625 C320.11300781 150.51722656 320.91351562 149.97195313 321.73828125 149.41015625 C324 148 324 148 327 147 C327.33 146.34 327.66 145.68 328 145 C328.99 144.67 329.98 144.34 331 144 C331.66 143.01 332.32 142.02 333 141 C333.99 140.67 334.98 140.34 336 140 C336.7115625 139.01 336.7115625 139.01 337.4375 138 C339 136 339 136 340.8515625 135.625 C346.64535995 133.93953165 350.98694243 126.37342052 354 121.4375 C356.28039585 117.10551056 356.43944139 113.83385534 356 109 C355.46375 108.731875 354.9275 108.46375 354.375 108.1875 C340 101 340 101 337.8125 99.875 C335.3730174 98.69731874 333.19756222 98.01975622 330.5 97.75 C328 97 328 97 326.375 94.8125 C325.92125 93.884375 325.4675 92.95625 325 92 C324.13375 90.63875 324.13375 90.63875 323.25 89.25 C321.12117237 83.71504816 322.26546643 79.01996733 324.25 73.5625 C326.35857507 70.47494365 327.4396173 70.00243785 331 69 C334.26953125 69.171875 334.26953125 69.171875 337.8125 69.75 C339.66101563 70.04970703 339.66101563 70.04970703 341.546875 70.35546875 C345.42902855 71.08007886 349.19101828 71.9611868 353 73 C353.80179688 73.13664062 354.60359375 73.27328125 355.4296875 73.4140625 C361.40647643 74.77655238 367.03895159 78.35601221 371 83 C371.44730469 83.47953125 371.89460937 83.9590625 372.35546875 84.453125 C380.53124285 93.44857825 385.53162297 102.85154365 385.24609375 115.1796875 C384.53242089 123.35860501 381.07332298 130.24318725 377.3046875 137.43359375 C375.91289326 140.01461067 375.91289326 140.01461067 375 143 C373.66666667 143.66666667 372.33333333 144.33333333 371 145 C366.82085772 149.09085054 362.78203657 153.47974273 359.75 158.5 C357.70735576 161.41806319 356.25877377 161.79939914 353 163 C351.86649466 165.01669827 351.86649466 165.01669827 351 167 C350.01 167.33 349.02 167.66 348 168 C347.67 168.66 347.34 169.32 347 170 C346.01 170.33 345.02 170.66 344 171 C343.67 171.66 343.34 172.32 343 173 C342.01 173.33 341.02 173.66 340 174 C339.45601562 174.56460938 338.91203125 175.12921875 338.3515625 175.7109375 C335.04470828 178.92990191 331.2819391 181.1929255 327.375 183.625 C326.54266846 184.14553955 325.71033691 184.6660791 324.8527832 185.20239258 C319.02979272 188.81206509 313.14968161 192.31270369 307.1875 195.6875 C306.08704346 196.32002686 306.08704346 196.32002686 304.96435547 196.96533203 C300.96639818 199.18600801 297.63687696 200.57052474 293 201 C292.67 201.99 292.34 202.98 292 204 C288.02943602 206.77382858 283.90232302 208.61279038 279 208 C279 208.66 279 209.32 279 210 C267.29178757 215.84092129 255.42189347 221.21680416 243.3203125 226.18618774 C241.90701391 226.76687211 240.49504305 227.35079932 239.08447266 227.93807983 C237.07479136 228.77270466 235.05995466 229.59336644 233.04296875 230.41015625 C231.87789795 230.88590088 230.71282715 231.36164551 229.51245117 231.85180664 C225.59525573 233.1323078 222.09316398 233.61120416 218 234 C218 234.66 218 235.32 218 236 C214.34543185 236.75241109 210.68266103 237.40049704 207 238 C207 238.66 207 239.32 207 240 C205.35 240 203.7 240 202 240 C202 240.66 202 241.32 202 242 C196.06 242.99 196.06 242.99 190 244 C190 244.66 190 245.32 190 246 C188.02 246 186.04 246 184 246 C184 246.66 184 247.32 184 248 C183.38511719 248.04898438 182.77023437 248.09796875 182.13671875 248.1484375 C180.92435547 248.26058594 180.92435547 248.26058594 179.6875 248.375 C178.88699219 248.44460938 178.08648437 248.51421875 177.26171875 248.5859375 C174.72775559 248.89564426 174.72775559 248.89564426 172 251 C167.24697047 252.58434318 162.58209874 253.88555249 157.6875 254.9375 C153.73745465 255.80729475 149.87576895 256.84551563 146 258 C146 258.66 146 259.32 146 260 C143.69 260 141.38 260 139 260 C139 260.66 139 261.32 139 262 C137.9275 261.95875 136.855 261.9175 135.75 261.875 C130.88081817 262.03730606 128.97038115 263.35307923 125 266 C122.31740221 266.40920983 119.69433167 266.726662 117 267 C111.34050924 267.60320591 106.00179702 268.62082541 100.5 270.0625 C99.40945313 270.3419043 99.40945313 270.3419043 98.296875 270.62695312 C96.53012276 271.08026455 94.76489225 271.5395002 93 272 C93 272.66 93 273.32 93 274 C90.03 274 87.06 274 84 274 C84 274.66 84 275.32 84 276 C79.48597275 277.19520343 75.25088345 278.13395381 70.5625 278 C65.53504771 277.85788121 60.87663514 278.85974293 56 280 C56 280.66 56 281.32 56 282 C50.65022193 283.32560872 45.64870476 284.11659535 40.125 284 C33.91175113 283.87089353 28.08062557 284.79249989 22 286 C22 286.66 22 287.32 22 288 C19.02298944 288.51720556 16.04457999 289.01357696 13.0625 289.5 C12.25103516 289.64308594 11.43957031 289.78617187 10.60351562 289.93359375 C4.94916937 290.8365692 -0.55872935 291.06718137 -6.27734375 291 C-12.86275866 290.92383292 -19.23754695 291.32398702 -25.78955078 292.06787109 C-42.88667226 293.99415404 -59.92946154 294.33668255 -77.125 294.375 C-78.85644257 294.38623901 -78.85644257 294.38623901 -80.62286377 294.39770508 C-100.5337369 294.50386432 -120.32160499 293.44752054 -139.63912964 288.27297974 C-143.52751034 287.24262787 -146.97875845 286.82059076 -151 287 C-151 286.34 -151 285.68 -151 285 C-152.093125 284.979375 -153.18625 284.95875 -154.3125 284.9375 C-160.34377173 284.20382115 -165.36200676 280.77129753 -170 277 C-171.109375 274.97265625 -171.109375 274.97265625 -172 273 C-173.08548926 271.87708007 -174.2138671 270.79451257 -175.375 269.75 C-181.79009456 263.50828637 -184.94323146 255.29821648 -185.375 246.375 C-185.11841377 235.82289127 -180.8105451 226.59898364 -175 218 C-174.59136719 217.3915625 -174.18273437 216.783125 -173.76171875 216.15625 C-173.22998047 215.36734375 -173.22998047 215.36734375 -172.6875 214.5625 C-170.87183967 212.04495676 -170.87183967 212.04495676 -170 209 C-168.67845575 208.31025874 -167.3435263 207.6458787 -166 207 C-164.36653066 205.4328642 -164.36653066 205.4328642 -162.9375 203.625 C-162.42316406 203.00625 -161.90882813 202.3875 -161.37890625 201.75 C-160.32617979 200.41396188 -159.3354991 199.02880638 -158.375 197.625 C-156.68457172 195.62722113 -155.48293192 195.57935078 -153 195 C-152.67 194.01 -152.34 193.02 -152 192 C-148.58078453 189.72052302 -147.09689823 189.67486895 -143.0625 189.625 C-142.02222656 189.59664062 -140.98195312 189.56828125 -139.91015625 189.5390625 C-136.29191599 190.1121529 -135.25853995 191.17682507 -133 194 C-129.54863007 198.84020948 -128.39570081 203.01166466 -129.37890625 208.890625 C-130.31533983 212.07096547 -131.96738296 214.41303285 -134 217 C-134.66 217.99 -135.32 218.98 -136 220 C-136.90105469 220.20302734 -136.90105469 220.20302734 -137.8203125 220.41015625 C-144.41531284 222.1948248 -150.0445251 230.62641355 -153.625 236.125 C-156.17909718 240.65923995 -156.57049657 243.86553083 -156 249 C-155.13375 249.37125 -155.13375 249.37125 -154.25 249.75 C-151.69728947 251.16817251 -150.02214391 252.91045129 -148 255 C-145.6921509 256.15392455 -143.52769669 256.53437166 -141 257 C-141 257.66 -141 258.32 -141 259 C-133.50298299 261.436168 -126.87690257 262.41136629 -119 262 C-119 262.66 -119 263.32 -119 264 C-112.4 264.66 -105.8 265.32 -99 266 C-99 265.67 -99 265.34 -99 265 C-97.35 265 -95.7 265 -94 265 C-94.49154012 257.62689818 -96.89741476 251.41227971 -99.5625 244.5625 C-110.07652449 216.77354833 -118.57190218 188.60744304 -122 159 C-122.14139404 157.80238037 -122.14139404 157.80238037 -122.28564453 156.58056641 C-123.17058786 148.15065008 -123.24227866 139.71690099 -123.25 131.25 C-123.25100708 130.48020813 -123.25201416 129.71041626 -123.25305176 128.91729736 C-123.24146116 115.75685454 -122.43171776 102.96042679 -120 90 C-119.86078125 89.24170898 -119.7215625 88.48341797 -119.578125 87.70214844 C-116.12018997 69.58801193 -109.18178217 53.00083243 -99.90771484 37.13085938 C-98.34415271 34.43919315 -96.98756172 31.96268515 -96 29 C-95.01 28.67 -94.02 28.34 -93 28 C-92.87625 27.38125 -92.7525 26.7625 -92.625 26.125 C-91.71459707 23.02963003 -89.73357339 22.56204193 -87 21 C-85.34329588 19.09663191 -85.34329588 19.09663191 -84 17 C-81.33333333 13.11111111 -81.33333333 13.11111111 -78 12 C-77.67 11.34 -77.34 10.68 -77 10 C-76.01 9.67 -75.02 9.34 -74 9 C-73.443125 8.360625 -72.88625 7.72125 -72.3125 7.0625 C-69.53148456 4.58213488 -67.45840876 4.24325174 -63.89453125 3.49609375 C-61.43237086 2.85136309 -59.88779098 1.67803642 -58 0 C-54.69733925 -2.20177383 -52.89132217 -2.48605179 -49 -3 C-47.84757813 -3.16757813 -46.69515625 -3.33515625 -45.5078125 -3.5078125 C-29.95152336 -5.42585754 -14.9932761 -4.33603455 0 0 Z M-70.13671875 45.51171875 C-82.09963865 61.48735811 -88.14947874 78.59623686 -92 98 C-92.2475 99.19367188 -92.495 100.38734375 -92.75 101.6171875 C-97.41682634 129.16442634 -93.30123942 157.93885115 -87.63378906 184.97412109 C-87.24849886 186.8135998 -86.87077196 188.65471276 -86.50683594 190.49853516 C-82.84357785 208.89790166 -75.45522567 226.3798911 -68.81280518 243.86016846 C-68.06444272 245.83034486 -67.31842888 247.80138547 -66.57373047 249.77294922 C-64.40115771 255.52259469 -62.2138062 261.26610443 -60 267 C-39.35285473 267.20229078 -19.00858482 264.74953305 1.4375 262.125 C2.41160828 262.00211609 3.38571655 261.87923218 4.38934326 261.75262451 C16.71180745 260.18810993 28.79112541 258.13323647 40.91690063 255.44848633 C43.95138986 254.79516803 47.0003228 254.23553707 50.0546875 253.68359375 C65.89977557 250.80329808 81.54267761 247.31709543 97.1875 243.5 C98.59403839 243.159189 98.59403839 243.159189 100.0289917 242.81149292 C112.36203803 239.81357529 124.5284802 236.44320379 136.65893555 232.71234131 C139.62032726 231.81124623 142.59196647 230.94821709 145.56539917 230.08786011 C154.84629474 227.39953684 164.02667138 224.44568347 173.1875 221.375 C173.96068573 221.11610992 174.73387146 220.85721985 175.53048706 220.59048462 C201.11446672 212.00785338 226.22750604 202.64589529 250.87934875 191.65858459 C255.28137173 189.71049967 259.71149803 187.94554672 264.22265625 186.265625 C274.06258662 182.87712688 274.06258662 182.87712688 281.21386719 175.85742188 C282.83994005 171.09100807 283.10557226 166.44682353 283.0078125 161.44580078 C282.99971486 158.91073385 283.21851875 156.48049544 283.4921875 153.9609375 C284.2314301 146.36147046 284.24215517 138.7531255 284.25 131.125 C284.25133942 130.35364716 284.25267883 129.58229431 284.25405884 128.78756714 C284.24937301 116.31245217 283.51850103 104.25070857 281 92 C280.7834375 90.88882813 280.566875 89.77765625 280.34375 88.6328125 C275.36182665 66.27346601 264.09299776 44.21810858 244.48828125 31.3984375 C232.41041416 24.61056243 219.02384807 22.93334114 205.45703125 25.73046875 C197.351152 28.57625906 190.40427768 33.43118443 183.30859375 38.16796875 C148.613387 61.21278415 108.84816258 73.7006608 68 80 C67.1538916 80.13422363 66.3077832 80.26844727 65.43603516 80.40673828 C53.05236429 82.28289212 40.5585317 82.20056043 28.0625 82.25 C26.79592056 82.25817245 26.79592056 82.25817245 25.50375366 82.26651001 C-0.40903385 82.39091659 -0.40903385 82.39091659 -9 77 C-9.66 77 -10.32 77 -11 77 C-13.42048627 71.65556631 -13.72323546 66.79459733 -13 61 C-10.95426614 57.54341521 -9.33219615 56.2214641 -6 54 C-0.45412343 53.50196847 5.16548285 53.84532786 10.6875 54.5 C18.08643688 55.36260184 25.56365866 55.07764161 33 55 C30.27059211 51.78069839 26.72045606 50.08367853 23.0625 48.125 C15.47206278 43.97810261 8.25694187 39.35980888 1.09204102 34.51806641 C-23.3144018 18.25041399 -51.11258308 22.70638841 -70.13671875 45.51171875 Z M312 152 C312 153.98 312 155.96 312 158 C312.66 157.67 313.32 157.34 314 157 C313.67 155.35 313.34 153.7 313 152 C312.67 152 312.34 152 312 152 Z M-93 262 C-92 265 -92 265 -92 265 Z M-92 265 C-91 267 -91 267 -91 267 Z M75 275 C79 276 79 276 79 276 Z M71 276 C75 277 75 277 75 277 Z M46 281 C50 282 50 282 50 282 Z M40 282 C40 282.33 40 282.66 40 283 C41.65 283 43.3 283 45 283 C45 282.67 45 282.34 45 282 C43.35 282 41.7 282 40 282 Z M9 287 C9 287.33 9 287.66 9 288 C10.98 288 12.96 288 15 288 C15 287.67 15 287.34 15 287 C13.02 287 11.04 287 9 287 Z M2 288 C2 288.33 2 288.66 2 289 C4.31 289 6.62 289 9 289 C9 288.67 9 288.34 9 288 C6.69 288 4.38 288 2 288 Z M-6 289 C-6 289.33 -6 289.66 -6 290 C-3.69 290 -1.38 290 1 290 C1 289.67 1 289.34 1 289 C-1.31 289 -3.62 289 -6 289 Z " fill="#01366F" transform="translate(300,175)"/>
<path d="M0 0 C-5.99179852 20.72301586 -13.91089545 40.86564152 -21.90576172 60.88391113 C-34.14878777 91.57113736 -42.62633471 121.38869743 -43.38549805 154.54632568 C-43.96961876 180.00151098 -46.55843006 202.8214096 -60 225 C-60.33 225.99 -60.66 226.98 -61 228 C-61.639375 228.309375 -62.27875 228.61875 -62.9375 228.9375 C-65.1462845 229.80297296 -65.1462845 229.80297296 -65.83203125 231.87109375 C-67.35214987 234.64187853 -69.03008044 235.55074352 -71.75 237.125 C-72.59046875 237.62257813 -73.4309375 238.12015625 -74.296875 238.6328125 C-83.46453599 243.26963526 -94.25301768 243.36080441 -104.234375 241.34765625 C-110.52078106 239.23099062 -120.92954781 235.14090438 -124 229 C-124.99 228.67 -125.98 228.34 -127 228 C-127.69042645 226.67881359 -128.35359487 225.34327311 -129 224 C-130.22259907 222.64245622 -131.49824711 221.33152047 -132.8125 220.0625 C-133.52277344 219.3715625 -134.23304688 218.680625 -134.96484375 217.96875 C-135.63644531 217.3190625 -136.30804688 216.669375 -137 216 C-137.9603873 215.02284783 -138.91911928 214.0440611 -139.875 213.0625 C-141.82597612 210.96116416 -141.82597612 210.96116416 -144 210 C-144.12375 209.236875 -144.2475 208.47375 -144.375 207.6875 C-145.14447942 204.37873847 -146.5625802 203.28508106 -149 201 C-149.33 200.01 -149.66 199.02 -150 198 C-151.31402764 195.65352207 -152.64968634 193.32536803 -154 191 C-160.18213462 180.16609695 -165.39935317 168.90380537 -170.4375 157.5 C-180.49317696 134.02279696 -180.49317696 134.02279696 -196 114 C-198.04270031 113.27265534 -198.04270031 113.27265534 -200 113 C-200.66 112.67 -201.32 112.34 -202 112 C-207.34092792 111.35540525 -210.02396478 111.61172359 -214.375 114.875 C-218.57802227 118.27414687 -218.57802227 118.27414687 -221 123 C-221.99 123.495 -221.99 123.495 -223 124 C-223.33 124.66 -223.66 125.32 -224 126 C-224.56847656 126.66 -225.13695312 127.32 -225.72265625 128 C-228.82050284 132.08086824 -231.08410164 136.45858561 -233.4375 141 C-233.95683105 141.99531738 -234.47616211 142.99063477 -235.01123047 144.01611328 C-239.20112314 152.17168614 -242.94523144 160.4826172 -246.625 168.875 C-252.91043791 183.18730993 -259.87235025 196.45611089 -269.50390625 208.80078125 C-271.11491603 210.87208421 -271.11491603 210.87208421 -271.46484375 213.16796875 C-272 215 -272 215 -273.7734375 215.9765625 C-274.87558594 216.48316406 -274.87558594 216.48316406 -276 217 C-277.5899923 218.40548807 -279.12943165 219.86942784 -280.625 221.375 C-281.40101563 222.14585937 -282.17703125 222.91671875 -282.9765625 223.7109375 C-285.05023591 225.85167966 -285.05023591 225.85167966 -286.0859375 228.2265625 C-287 230 -287 230 -290 231 C-290.598125 231.639375 -291.19625 232.27875 -291.8125 232.9375 C-294.40195094 235.37898231 -296.60803539 236.04140131 -300 237 C-302.15811388 237.94729537 -302.15811388 237.94729537 -304 240 C-307.625 240.125 -307.625 240.125 -311 240 C-311 240.66 -311 241.32 -311 242 C-332.96518375 242.86137975 -332.96518375 242.86137975 -341.25 236.1875 C-341.8275 235.465625 -342.405 234.74375 -343 234 C-343.99494068 232.80825787 -344.99541312 231.62112217 -346 230.4375 C-346.51046875 229.83292969 -347.0209375 229.22835937 -347.546875 228.60546875 C-349.19384236 226.78583546 -351.00743888 225.42325794 -353 224 C-355 221 -355 221 -356 218 C-356.76506687 216.39307517 -357.53680528 214.7893216 -358.3125 213.1875 C-366.14400908 196.05324459 -367.95259309 177.85814891 -368.23974609 159.26245117 C-368.57130411 138.32560783 -371.12488834 118.39483112 -376 98 C-374.73631592 97.91959473 -373.47263184 97.83918945 -372.1706543 97.75634766 C-367.38605435 97.4508628 -362.60180162 97.14019347 -357.81762695 96.828125 C-355.76498086 96.69492154 -353.71224851 96.56303933 -351.65942383 96.43261719 C-338.39927877 95.58905523 -325.20147981 94.51090175 -312 93 C-312 92.34 -312 91.68 -312 91 C-307.21132966 90.2100531 -302.72244469 89.94209911 -297.875 90.0625 C-290.73848319 90.12653654 -284.00218781 89.32250427 -277 88 C-277 87.34 -277 86.68 -277 86 C-276.26136719 86.02320313 -275.52273438 86.04640625 -274.76171875 86.0703125 C-267.59156136 86.19786295 -261.00003611 85.54331505 -254 84 C-254 83.34 -254 82.68 -254 82 C-252.54480325 81.65322971 -251.08553194 81.323564 -249.625 81 C-248.40683594 80.7215625 -248.40683594 80.7215625 -247.1640625 80.4375 C-244.47331676 80.06544627 -242.22373575 80.03228887 -239.53125 80.125 C-232.76582283 80.19574957 -226.42349905 78.55649549 -219.875 77 C-218.63234375 76.71382813 -217.3896875 76.42765625 -216.109375 76.1328125 C-213.07052734 75.43153996 -210.03435286 74.72042728 -207 74 C-207 73.34 -207 72.68 -207 72 C-203.83741949 71.15062123 -200.66940569 70.32351131 -197.5 69.5 C-196.1696875 69.14228516 -196.1696875 69.14228516 -194.8125 68.77734375 C-189.34942093 67.37140428 -184.63051212 66.84219417 -179 67 C-176.78228936 66.14209817 -176.78228936 66.14209817 -175 65 C-172.0948669 64.18430388 -169.15014517 63.62703554 -166.1875 63.0625 C-162.04305948 62.24589172 -158.03975031 61.22948922 -154 60 C-154 59.34 -154 58.68 -154 58 C-152.906875 58.04125 -151.81375 58.0825 -150.6875 58.125 C-146.91107771 58.32074666 -146.91107771 58.32074666 -144 56 C-140.44401031 54.9412351 -136.75749409 54.3273892 -133.12109375 53.59765625 C-130.72719318 53.04075539 -130.72719318 53.04075539 -128 51 C-124.29405004 48.52936669 -120.57666035 47.34146943 -116.375 45.9375 C-115.60542969 45.66873047 -114.83585937 45.39996094 -114.04296875 45.12304688 C-108.66963246 43.31843393 -103.65102675 42.45681953 -98 42 C-98 41.34 -98 40.68 -98 40 C-94.17010894 38.19769832 -91.21878192 37.80377759 -87 38 C-87 37.34 -87 36.68 -87 36 C-86.236875 35.855625 -85.47375 35.71125 -84.6875 35.5625 C-81.36262238 34.86659538 -79.43447177 34.43447177 -77 32 C-74.9057998 31.06273429 -72.7829424 30.18910163 -70.6484375 29.34765625 C-69.32041255 28.81884235 -67.99245308 28.289864 -66.66455078 27.76074219 C-65.61512299 27.3456842 -65.61512299 27.3456842 -64.54449463 26.92224121 C-47.95056711 20.34629345 -31.53819113 13.39817241 -15.62890625 5.28125 C-14.37279541 4.64074707 -14.37279541 4.64074707 -13.09130859 3.98730469 C-11.53520418 3.18633605 -9.98431806 2.37511221 -8.43994141 1.55175781 C-3.32376762 -1.10792254 -3.32376762 -1.10792254 0 0 Z M-243 81 C-239 82 -239 82 -239 82 Z M-248 82 C-244 83 -244 83 -244 83 Z M-304 91 C-304 91.33 -304 91.66 -304 92 C-301.69 92 -299.38 92 -297 92 C-297 91.67 -297 91.34 -297 91 C-299.31 91 -301.62 91 -304 91 Z M-208 109 C-204 110 -204 110 -204 110 Z M-101 240 C-101 240.33 -101 240.66 -101 241 C-95.39 241 -89.78 241 -84 241 C-84 240.67 -84 240.34 -84 240 C-89.61 240 -95.22 240 -101 240 Z " fill="#FDFEFE" transform="translate(601,389)"/>
<path d="M0 0 C-5.99179852 20.72301586 -13.91089545 40.86564152 -21.90576172 60.88391113 C-34.14878777 91.57113736 -42.62633471 121.38869743 -43.38549805 154.54632568 C-43.96961876 180.00151098 -46.55843006 202.8214096 -60 225 C-60.33 225.99 -60.66 226.98 -61 228 C-61.639375 228.309375 -62.27875 228.61875 -62.9375 228.9375 C-65.1462845 229.80297296 -65.1462845 229.80297296 -65.83203125 231.87109375 C-67.35214987 234.64187853 -69.03008044 235.55074352 -71.75 237.125 C-72.59046875 237.62257813 -73.4309375 238.12015625 -74.296875 238.6328125 C-83.46453599 243.26963526 -94.25301768 243.36080441 -104.234375 241.34765625 C-110.52078106 239.23099062 -120.92954781 235.14090438 -124 229 C-124.99 228.67 -125.98 228.34 -127 228 C-127.69042645 226.67881359 -128.35359487 225.34327311 -129 224 C-130.22259907 222.64245622 -131.49824711 221.33152047 -132.8125 220.0625 C-133.52277344 219.3715625 -134.23304688 218.680625 -134.96484375 217.96875 C-135.63644531 217.3190625 -136.30804688 216.669375 -137 216 C-137.9603873 215.02284783 -138.91911928 214.0440611 -139.875 213.0625 C-141.82597612 210.96116416 -141.82597612 210.96116416 -144 210 C-144.12375 209.236875 -144.2475 208.47375 -144.375 207.6875 C-145.14447942 204.37873847 -146.5625802 203.28508106 -149 201 C-149.33 200.01 -149.66 199.02 -150 198 C-151.31402764 195.65352207 -152.64968634 193.32536803 -154 191 C-160.18213462 180.16609695 -165.39935317 168.90380537 -170.4375 157.5 C-180.49317696 134.02279696 -180.49317696 134.02279696 -196 114 C-198.04270031 113.27265534 -198.04270031 113.27265534 -200 113 C-200.66 112.67 -201.32 112.34 -202 112 C-207.34092792 111.35540525 -210.02396478 111.61172359 -214.375 114.875 C-218.57802227 118.27414687 -218.57802227 118.27414687 -221 123 C-221.99 123.495 -221.99 123.495 -223 124 C-223.33 124.66 -223.66 125.32 -224 126 C-224.56847656 126.66 -225.13695312 127.32 -225.72265625 128 C-228.82050284 132.08086824 -231.08410164 136.45858561 -233.4375 141 C-233.95683105 141.99531738 -234.47616211 142.99063477 -235.01123047 144.01611328 C-239.20112314 152.17168614 -242.94523144 160.4826172 -246.625 168.875 C-252.91043791 183.18730993 -259.87235025 196.45611089 -269.50390625 208.80078125 C-271.11491603 210.87208421 -271.11491603 210.87208421 -271.46484375 213.16796875 C-272 215 -272 215 -273.7734375 215.9765625 C-274.87558594 216.48316406 -274.87558594 216.48316406 -276 217 C-277.5899923 218.40548807 -279.12943165 219.86942784 -280.625 221.375 C-281.40101563 222.14585937 -282.17703125 222.91671875 -282.9765625 223.7109375 C-285.05023591 225.85167966 -285.05023591 225.85167966 -286.0859375 228.2265625 C-287 230 -287 230 -290 231 C-290.598125 231.639375 -291.19625 232.27875 -291.8125 232.9375 C-294.40195094 235.37898231 -296.60803539 236.04140131 -300 237 C-302.15811388 237.94729537 -302.15811388 237.94729537 -304 240 C-307.625 240.125 -307.625 240.125 -311 240 C-311 240.66 -311 241.32 -311 242 C-332.96518375 242.86137975 -332.96518375 242.86137975 -341.25 236.1875 C-341.8275 235.465625 -342.405 234.74375 -343 234 C-343.99494068 232.80825787 -344.99541312 231.62112217 -346 230.4375 C-346.51046875 229.83292969 -347.0209375 229.22835937 -347.546875 228.60546875 C-349.19384236 226.78583546 -351.00743888 225.42325794 -353 224 C-355 221 -355 221 -356 218 C-356.76506687 216.39307517 -357.53680528 214.7893216 -358.3125 213.1875 C-366.14400908 196.05324459 -367.95259309 177.85814891 -368.23974609 159.26245117 C-368.56868898 138.4907449 -370.61881704 118.13866956 -376 98 C-365.97112823 97.0232751 -356.06604235 96.89150374 -346 97 C-344.57490065 100.33118367 -343.60101661 103.45512713 -342.96484375 107.01953125 C-342.79533203 107.95990234 -342.62582031 108.90027344 -342.45117188 109.86914062 C-342.28166016 110.84044922 -342.11214844 111.81175781 -341.9375 112.8125 C-341.67743164 114.25206055 -341.67743164 114.25206055 -341.41210938 115.72070312 C-339.94180553 123.97355802 -338.87516144 132.03875946 -338.71875 140.41796875 C-338.69113586 141.58662224 -338.69113586 141.58662224 -338.66296387 142.77888489 C-338.60481767 145.24835437 -338.55181846 147.71789021 -338.5 150.1875 C-338.35641318 180.6164735 -338.35641318 180.6164735 -326.75 208.25 C-322.71633333 210.81687879 -319.64306681 211.01289833 -315 210 C-293.35516151 201.14216004 -282.85236952 175.76530401 -273.77734375 155.984375 C-264.70602093 136.23636038 -255.20256756 117.36808353 -242 100 C-241.37480469 99.15308594 -240.74960937 98.30617188 -240.10546875 97.43359375 C-237.59861737 94.53606424 -234.79336131 92.23526873 -231.75 89.9375 C-231.17588379 89.49994385 -230.60176758 89.0623877 -230.01025391 88.61157227 C-220.08459028 81.18755538 -211.29657841 79.14437327 -199 80 C-190.9661352 81.67120496 -185.01528813 85.56683653 -179 91 C-178.14792969 91.74765625 -177.29585937 92.4953125 -176.41796875 93.265625 C-156.6272127 111.72567213 -145.6820884 138.61076805 -134.76586914 162.82763672 C-126.97087626 180.01808225 -116.76067581 200.15068216 -99.30859375 209.1640625 C-94.45518899 210.92147133 -89.83260823 210.61086941 -85 209 C-83.87646979 207.14931284 -83.87646979 207.14931284 -83 205 C-82.68160156 204.40960937 -82.36320312 203.81921875 -82.03515625 203.2109375 C-74.46824256 188.92800804 -73.79561699 173.05730443 -73.59436035 157.22518921 C-73.38572218 142.65349149 -72.60044434 128.36846551 -70 114 C-69.8457959 113.13826172 -69.6915918 112.27652344 -69.53271484 111.38867188 C-64.70783919 85.54696499 -54.84278458 60.95902788 -45.00244141 36.69140625 C-44.68610748 35.90696136 -44.36977356 35.12251648 -44.04385376 34.31430054 C-43.45340707 32.85225422 -42.85853746 31.39198206 -42.25814819 29.93399048 C-40.87923937 26.51811727 -39.85771082 23.36013684 -39.20019531 19.73120117 C-38 16 -38 16 -35.20605469 13.85424805 C-34.03977539 13.32871338 -32.87349609 12.80317871 -31.671875 12.26171875 C-30.73193695 11.82325371 -30.73193695 11.82325371 -29.77301025 11.37593079 C-27.77670593 10.45203916 -25.76508758 9.56955331 -23.75 8.6875 C-22.41153171 8.07755893 -21.07427511 7.46495147 -19.73828125 6.84960938 C-17.2693767 5.7156518 -14.79485066 4.60151192 -12.31152344 3.4987793 C-10.08983022 2.49325182 -7.90335487 1.40632807 -5.75878906 0.24536133 C-3 -1 -3 -1 0 0 Z M-208 109 C-204 110 -204 110 -204 110 Z M-101 240 C-101 240.33 -101 240.66 -101 241 C-95.39 241 -89.78 241 -84 241 C-84 240.67 -84 240.34 -84 240 C-89.61 240 -95.22 240 -101 240 Z " fill="#00366F" transform="translate(601,389)"/>
<path d="M0 0 C-1.17268971 6.03224438 -2.81290374 11.56924175 -5.16015625 17.2421875 C-5.79138578 18.8052548 -6.42239947 20.36840929 -7.05322266 21.93164062 C-7.3815509 22.73835205 -7.70987915 23.54506348 -8.04815674 24.3762207 C-22.98792441 61.17952346 -33.68438752 96.75471143 -34.5 136.6875 C-35.22065909 171.82569821 -35.22065909 171.82569821 -43 185 C-43.54720703 185.94939453 -43.54720703 185.94939453 -44.10546875 186.91796875 C-45.83856914 189.71350616 -47.21993282 191.14662188 -50 193 C-55.1757672 194.10077667 -59.36375368 193.17879526 -63.9375 190.625 C-73.98361586 183.95874017 -80.76235841 175.14052349 -87 165 C-86.34 164.67 -85.68 164.34 -85 164 C-84.319375 164.474375 -83.63875 164.94875 -82.9375 165.4375 C-78.88514118 167.59301001 -75.50341432 167.58082906 -71 167 C-66.25423912 165.2986895 -63.66588924 163.26542279 -61 159 C-57.59225632 151.05668289 -55.90645358 143.80403583 -55.82421875 135.14453125 C-55.80415628 133.79946108 -55.78286437 132.45440883 -55.76049805 131.109375 C-55.74932953 130.40876953 -55.73816101 129.70816406 -55.72665405 128.98632812 C-55.11474661 95.01330312 -49.23987119 33.23987119 -24 8 C-20.59639647 6.27315724 -17.06877938 4.8178502 -13.5625 3.3125 C-12.11133789 2.66958008 -12.11133789 2.66958008 -10.63085938 2.01367188 C-9.70208984 1.61341797 -8.77332031 1.21316406 -7.81640625 0.80078125 C-6.96506104 0.43122314 -6.11371582 0.06166504 -5.23657227 -0.3190918 C-3 -1 -3 -1 0 0 Z " fill="#6BD0F4" transform="translate(563,407)"/>
<path d="M0 0 C20.20531318 13.75003404 30.65472253 36.79757841 35.1875 60.19140625 C36.92456285 69.61870758 38.42496367 78.93793131 38.48046875 88.546875 C38.48668495 89.61486076 38.48668495 89.61486076 38.49302673 90.704422 C38.50262185 92.99050173 38.50269647 95.27640339 38.5 97.5625 C38.50009064 98.73218826 38.50009064 98.73218826 38.50018311 99.92550659 C38.48771794 111.20575647 38.44546317 122.53937593 36.61572266 133.70214844 C36.26330744 135.87136699 36.26330744 135.87136699 36.23974609 138.32128906 C36.00684057 141.23069904 35.64129638 143.20238364 34.3125 145.8125 C30.43065199 148.78424424 26.18335499 150.56915675 21.6875 152.4375 C20.50414062 152.96472656 19.32078125 153.49195313 18.1015625 154.03515625 C15.18496135 155.32880998 12.25762587 156.58552307 9.3125 157.8125 C8.05612944 154.04338833 8.73928076 152.17440378 9.625 148.3125 C17.48779534 111.10309692 18.85687853 58.1731807 -2.6875 24.8125 C-10.88897714 12.78484778 -22.34771954 4.83091234 -36.6875 1.8125 C-42.69167975 1.19908085 -48.67510186 1.43672512 -54.6875 1.8125 C-38.98640507 -11.54770441 -16.9745144 -10.06764302 0 0 Z " fill="#6BD0F4" transform="translate(545.6875,207.1875)"/>
<path d="M0 0 C0.99 0.495 0.99 0.495 2 1 C1.55011719 1.51304687 1.10023438 2.02609375 0.63671875 2.5546875 C-13.21476593 19.04322838 -22.94619195 38.92016457 -31.53479004 58.52307129 C-40.70813539 79.42465128 -51.14826243 100.00973637 -70.875 112.875 C-75.09480265 114.39412895 -78.59530757 115.16074792 -83 114 C-91.22132062 108.24015262 -94.87697905 96.63768169 -96.73046875 87.1796875 C-97.19393057 83.43169189 -97.11974528 79.77197646 -97 76 C-95 77 -95 77 -94.32421875 78.890625 C-94.11410156 79.66921875 -93.90398437 80.4478125 -93.6875 81.25 C-92.26628772 85.63965566 -90.9458293 88.34085417 -87 91 C-81.663029 92.14290775 -76.79340533 91.18551733 -72.09375 88.5 C-60.10229179 79.90910456 -53.158675 67.31121841 -46.5625 54.5 C-40.77894788 43.28670713 -33.69615965 33.46783517 -25.0859375 24.23828125 C-23.13555617 22.14545634 -21.28368633 19.99701459 -19.4375 17.8125 C-15.94538705 13.80542109 -12.05656972 10.4200947 -8 7 C-6.49761612 5.69022944 -4.99754319 4.37780249 -3.5 3.0625 C-2.33333333 2.04166667 -1.16666667 1.02083333 0 0 Z " fill="#6BD0F4" transform="translate(360,486)"/>
<path d="M0 0 C18.48 0 36.96 0 56 0 C56 0.33 56 0.66 56 1 C37.52 1 19.04 1 0 1 C0 0.67 0 0.34 0 0 Z " fill="#003C66" transform="translate(196,470)"/>
<path d="M0 0 C0.33 0 0.66 0 1 0 C1 14.19 1 28.38 1 43 C0.67 43 0.34 43 0 43 C0 28.81 0 14.62 0 0 Z " fill="#003C5E" transform="translate(614,284)"/>
<path d="M0 0 C0.33 0 0.66 0 1 0 C1 11.88 1 23.76 1 36 C0.67 36 0.34 36 0 36 C0 24.12 0 12.24 0 0 Z " fill="#002F69" transform="translate(175,287)"/>
<path d="M0 0 C0.33 0 0.66 0 1 0 C1 11.55 1 23.1 1 35 C0.67 35 0.34 35 0 35 C0 23.45 0 11.9 0 0 Z " fill="#00196C" transform="translate(231,526)"/>
<path d="M0 0 C0.33 0 0.66 0 1 0 C1 11.55 1 23.1 1 35 C0.67 35 0.34 35 0 35 C0 23.45 0 11.9 0 0 Z " fill="#003674" transform="translate(558,529)"/>
<path d="M0 0 C2.625 0.375 2.625 0.375 5 1 C5 1.66 5 2.32 5 3 C1.6875 4.625 1.6875 4.625 -2 6 C-2.99 5.34 -3.98 4.68 -5 4 C-4.01 3.34 -3.02 2.68 -2 2 C-1.34 1.34 -0.68 0.68 0 0 Z " fill="#7DD6EF" transform="translate(551,410)"/>
<path d="M0 0 C7.92 0 15.84 0 24 0 C24 0.33 24 0.66 24 1 C16.08 1 8.16 1 0 1 C0 0.67 0 0.34 0 0 Z " fill="#002C6D" transform="translate(507,169)"/>
<path d="M0 0 C7.92 0 15.84 0 24 0 C24 0.33 24 0.66 24 1 C16.08 1 8.16 1 0 1 C0 0.67 0 0.34 0 0 Z " fill="#002C6B" transform="translate(259,169)"/>
<path d="M0 0 C0.99 0.495 0.99 0.495 2 1 C3.27536232 6.44927536 3.27536232 6.44927536 2 9 C1.34 9 0.68 9 0 9 C0 6.03 0 3.06 0 0 Z " fill="#6CC2E6" transform="translate(263,562)"/>
<path d="M0 0 C5.94 0 11.88 0 18 0 C18 0.33 18 0.66 18 1 C12.06 1 6.12 1 0 1 C0 0.67 0 0.34 0 0 Z " fill="#072C5E" transform="translate(238,484)"/>
<path d="M0 0 C0 3 0 3 -1.875 5.1875 C-4 7 -4 7 -6 7 C-4.60667426 3.63279613 -3.0210714 2.0140476 0 0 Z " fill="#123F76" transform="translate(293,229)"/>
<path d="M0 0 C1.77049689 -0.05410687 3.54146849 -0.09284119 5.3125 -0.125 C6.29863281 -0.14820313 7.28476562 -0.17140625 8.30078125 -0.1953125 C11 0 11 0 14 2 C7.07 1.505 7.07 1.505 0 1 C0 0.67 0 0.34 0 0 Z " fill="#00247F" transform="translate(631,243)"/>
<path d="M0 0 C4.62 0 9.24 0 14 0 C14 0.33 14 0.66 14 1 C9.38 1 4.76 1 0 1 C0 0.67 0 0.34 0 0 Z " fill="#FFFFFF" transform="translate(256,483)"/>
<path d="M0 0 C2.31 1.98 4.62 3.96 7 6 C4 6 4 6 1.8125 4.125 C0 2 0 2 0 0 Z " fill="#002B4F" transform="translate(250,615)"/>
<path d="M0 0 C4.29 0 8.58 0 13 0 C13 0.33 13 0.66 13 1 C8.71 1 4.42 1 0 1 C0 0.67 0 0.34 0 0 Z " fill="#003278" transform="translate(252,469)"/>
<path d="M0 0 C2.31 1.98 4.62 3.96 7 6 C4 6 4 6 1.8125 4.125 C0 2 0 2 0 0 Z " fill="#002D6B" transform="translate(122,443)"/>
<path d="M0 0 C4.29 0 8.58 0 13 0 C13 0.33 13 0.66 13 1 C8.71 1 4.42 1 0 1 C0 0.67 0 0.34 0 0 Z " fill="#002F6E" transform="translate(188,439)"/>
<path d="M0 0 C3.96 0 7.92 0 12 0 C12 0.33 12 0.66 12 1 C8.04 1 4.08 1 0 1 C0 0.67 0 0.34 0 0 Z " fill="#003F5F" transform="translate(226,485)"/>
<path d="M0 0 C3.63 0 7.26 0 11 0 C11 0.33 11 0.66 11 1 C7.37 1 3.74 1 0 1 C0 0.67 0 0.34 0 0 Z " fill="#003760" transform="translate(265,468)"/>
<path d="M0 0 C3.3 0.33 6.6 0.66 10 1 C10 1.33 10 1.66 10 2 C6.7 1.67 3.4 1.34 0 1 C0 0.67 0 0.34 0 0 Z " fill="#002245" transform="translate(162,465)"/>
<path d="M0 0 C0.33 0 0.66 0 1 0 C1 3.63 1 7.26 1 11 C0.67 11 0.34 11 0 11 C0 7.37 0 3.74 0 0 Z " fill="#001B54" transform="translate(113,415)"/>
<path d="M0 0 C0.33 0 0.66 0 1 0 C1 3.63 1 7.26 1 11 C0.67 11 0.34 11 0 11 C0 7.37 0 3.74 0 0 Z " fill="#001745" transform="translate(686,282)"/>
<path d="M0 0 C0.33 0 0.66 0 1 0 C1 3.3 1 6.6 1 10 C0.67 10 0.34 10 0 10 C0 6.7 0 3.4 0 0 Z " fill="#002E7B" transform="translate(232,561)"/>
<path d="M0 0 C3.3 0 6.6 0 10 0 C10 0.33 10 0.66 10 1 C6.7 1 3.4 1 0 1 C0 0.67 0 0.34 0 0 Z " fill="#FFFFFF" transform="translate(279,481)"/>
<path d="M0 0 C3.3 0 6.6 0 10 0 C10 0.33 10 0.66 10 1 C6.7 1 3.4 1 0 1 C0 0.67 0 0.34 0 0 Z " fill="#002E7B" transform="translate(186,469)"/>
<path d="M0 0 C-3.13498292 1.85776765 -5.37471432 2.20140476 -9 2 C-5.86501708 0.14223235 -3.62528568 -0.20140476 0 0 Z " fill="#FFFFFF" transform="translate(381,465)"/>
<path d="M0 0 C-3.13498292 1.85776765 -5.37471432 2.20140476 -9 2 C-5.86501708 0.14223235 -3.62528568 -0.20140476 0 0 Z " fill="#FFFFFF" transform="translate(390,463)"/>
<path d="M0 0 C0.33 0 0.66 0 1 0 C1 3.3 1 6.6 1 10 C0.67 10 0.34 10 0 10 C0 6.7 0 3.4 0 0 Z " fill="#003076" transform="translate(176,324)"/>
<path d="M0 0 C0.33 0 0.66 0 1 0 C1 2.97 1 5.94 1 9 C0.67 9 0.34 9 0 9 C0 6.03 0 3.06 0 0 Z " fill="#002C59" transform="translate(559,520)"/>
<path d="M0 0 C2.97 0 5.94 0 9 0 C9 0.33 9 0.66 9 1 C6.03 1 3.06 1 0 1 C0 0.67 0 0.34 0 0 Z " fill="#FFFFFF" transform="translate(270,482)"/>
<path d="M0 0 C2.97 0 5.94 0 9 0 C9 0.33 9 0.66 9 1 C6.03 1 3.06 1 0 1 C0 0.67 0 0.34 0 0 Z " fill="#002A54" transform="translate(276,467)"/>
<path d="M0 0 C2.97 0 5.94 0 9 0 C9 0.33 9 0.66 9 1 C6.03 1 3.06 1 0 1 C0 0.67 0 0.34 0 0 Z " fill="#002F4B" transform="translate(285,466)"/>
<path d="M0 0 C0.33 0 0.66 0 1 0 C1 2.97 1 5.94 1 9 C0.67 9 0.34 9 0 9 C0 6.03 0 3.06 0 0 Z " fill="#003871" transform="translate(176,278)"/>
<path d="M0 0 C0.33 0 0.66 0 1 0 C1 2.64 1 5.28 1 8 C0.67 8 0.34 8 0 8 C0 5.36 0 2.72 0 0 Z " fill="#002F6A" transform="translate(557,564)"/>
<path d="M0 0 C0.33 0 0.66 0 1 0 C1 2.64 1 5.28 1 8 C0.67 8 0.34 8 0 8 C0 5.36 0 2.72 0 0 Z " fill="#00377A" transform="translate(230,518)"/>
<path d="M0 0 C0.33 0 0.66 0 1 0 C1 2.64 1 5.28 1 8 C0.67 8 0.34 8 0 8 C0 5.36 0 2.72 0 0 Z " fill="#002544" transform="translate(560,512)"/>
<path d="M0 0 C2.64 0 5.28 0 8 0 C8 0.33 8 0.66 8 1 C5.36 1 2.72 1 0 1 C0 0.67 0 0.34 0 0 Z " fill="#003484" transform="translate(178,468)"/>
<path d="M0 0 C0.33 0 0.66 0 1 0 C1 2.64 1 5.28 1 8 C0.67 8 0.34 8 0 8 C0 5.36 0 2.72 0 0 Z " fill="#002F6F" transform="translate(177,334)"/>
<path d="M0 0 C0.33 0 0.66 0 1 0 C1 2.64 1 5.28 1 8 C0.67 8 0.34 8 0 8 C0 5.36 0 2.72 0 0 Z " fill="#001A6A" transform="translate(655,284)"/>
<path d="M0 0 C0.33 0 0.66 0 1 0 C1 2.64 1 5.28 1 8 C0.67 8 0.34 8 0 8 C0 5.36 0 2.72 0 0 Z " fill="#003464" transform="translate(613,276)"/>
<path d="M0 0 C0.33 0 0.66 0 1 0 C1 2.31 1 4.62 1 7 C0.67 7 0.34 7 0 7 C0 4.69 0 2.38 0 0 Z " fill="#002D5B" transform="translate(556,572)"/>
<path d="M0 0 C0.33 0 0.66 0 1 0 C1 2.31 1 4.62 1 7 C0.67 7 0.34 7 0 7 C0 4.69 0 2.38 0 0 Z " fill="#001E79" transform="translate(233,571)"/>
<path d="M0 0 C0.33 0 0.66 0 1 0 C1 2.31 1 4.62 1 7 C0.67 7 0.34 7 0 7 C0 4.69 0 2.38 0 0 Z " fill="#00214E" transform="translate(229,511)"/>
<path d="M0 0 C2.31 0 4.62 0 7 0 C7 0.33 7 0.66 7 1 C4.69 1 2.38 1 0 1 C0 0.67 0 0.34 0 0 Z " fill="#FFFFFF" transform="translate(311,477)"/>
<path d="M0 0 C2.31 0 4.62 0 7 0 C7 0.33 7 0.66 7 1 C4.69 1 2.38 1 0 1 C0 0.67 0 0.34 0 0 Z " fill="#001E73" transform="translate(181,438)"/>
<path d="M0 0 C0.33 0 0.66 0 1 0 C1 2.31 1 4.62 1 7 C0.67 7 0.34 7 0 7 C0 4.69 0 2.38 0 0 Z " fill="#00215A" transform="translate(144,417)"/>
<path d="M0 0 C0.33 0 0.66 0 1 0 C1 2.31 1 4.62 1 7 C0.67 7 0.34 7 0 7 C0 4.69 0 2.38 0 0 Z " fill="#002A73" transform="translate(177,270)"/>
<path d="M0 0 C0.33 0 0.66 0 1 0 C1 2.31 1 4.62 1 7 C0.67 7 0.34 7 0 7 C0 4.69 0 2.38 0 0 Z " fill="#002D48" transform="translate(612,269)"/>
<path d="M0 0 C1.98 0 3.96 0 6 0 C6 0.33 6 0.66 6 1 C4.02 1 2.04 1 0 1 C0 0.67 0 0.34 0 0 Z " fill="#FFFFFF" transform="translate(305,478)"/>
<path d="M0 0 C1.98 0 3.96 0 6 0 C6 0.33 6 0.66 6 1 C4.02 1 2.04 1 0 1 C0 0.67 0 0.34 0 0 Z " fill="#FFFFFF" transform="translate(318,476)"/>
<path d="M0 0 C1.98 0 3.96 0 6 0 C6 0.33 6 0.66 6 1 C4.02 1 2.04 1 0 1 C0 0.67 0 0.34 0 0 Z " fill="#FFFFFF" transform="translate(336,473)"/>
<path d="M0 0 C1.98 0 3.96 0 6 0 C6 0.33 6 0.66 6 1 C4.02 1 2.04 1 0 1 C0 0.67 0 0.34 0 0 Z " fill="#0023A2" transform="translate(172,467)"/>
<path d="M0 0 C1.98 0 3.96 0 6 0 C6 0.33 6 0.66 6 1 C4.02 1 2.04 1 0 1 C0 0.67 0 0.34 0 0 Z " fill="#0023A2" transform="translate(322,461)"/>
<path d="M0 0 C1.98 0 3.96 0 6 0 C6 0.33 6 0.66 6 1 C4.02 1 2.04 1 0 1 C0 0.67 0 0.34 0 0 Z " fill="#002378" transform="translate(328,460)"/>
<path d="M0 0 C1.98 0 3.96 0 6 0 C6 0.33 6 0.66 6 1 C4.02 1 2.04 1 0 1 C0 0.67 0 0.34 0 0 Z " fill="#00267F" transform="translate(334,459)"/>
<path d="M0 0 C0.33 0 0.66 0 1 0 C1 1.98 1 3.96 1 6 C0.67 6 0.34 6 0 6 C0 4.02 0 2.04 0 0 Z " fill="#000054" transform="translate(172,377)"/>
<path d="M0 0 C0.33 0 0.66 0 1 0 C1 1.98 1 3.96 1 6 C0.67 6 0.34 6 0 6 C0 4.02 0 2.04 0 0 Z " fill="#00434D" transform="translate(179,349)"/>
<path d="M0 0 C0.33 0 0.66 0 1 0 C1 1.65 1 3.3 1 5 C0.67 5 0.34 5 0 5 C0 3.35 0 1.7 0 0 Z " fill="#001D43" transform="translate(554,583)"/>
<path d="M0 0 C0.33 0 0.66 0 1 0 C1 1.65 1 3.3 1 5 C0.67 5 0.34 5 0 5 C0 3.35 0 1.7 0 0 Z " fill="#001D90" transform="translate(561,507)"/>
<path d="M0 0 C0.33 0 0.66 0 1 0 C1 1.65 1 3.3 1 5 C0.67 5 0.34 5 0 5 C0 3.35 0 1.7 0 0 Z " fill="#002E54" transform="translate(228,506)"/>
<path d="M0 0 C0.33 0 0.66 0 1 0 C1 1.65 1 3.3 1 5 C0.67 5 0.34 5 0 5 C0 3.35 0 1.7 0 0 Z " fill="#001D6E" transform="translate(562,502)"/>
<path d="M0 0 C0.33 0 0.66 0 1 0 C1 1.65 1 3.3 1 5 C0.67 5 0.34 5 0 5 C0 3.35 0 1.7 0 0 Z " fill="#002E3B" transform="translate(227,501)"/>
<path d="M0 0 C1.65 0 3.3 0 5 0 C5 0.33 5 0.66 5 1 C3.35 1 1.7 1 0 1 C0 0.67 0 0.34 0 0 Z " fill="#FFFFFF" transform="translate(331,474)"/>
<path d="M0 0 C1.65 0 3.3 0 5 0 C5 0.33 5 0.66 5 1 C3.35 1 1.7 1 0 1 C0 0.67 0 0.34 0 0 Z " fill="#FFFFFF" transform="translate(342,472)"/>
<path d="M0 0 C1.65 0 3.3 0 5 0 C5 0.33 5 0.66 5 1 C3.35 1 1.7 1 0 1 C0 0.67 0 0.34 0 0 Z " fill="#FFFFFF" transform="translate(367,467)"/>
<path d="M0 0 C1.65 0 3.3 0 5 0 C5 0.33 5 0.66 5 1 C3.35 1 1.7 1 0 1 C0 0.67 0 0.34 0 0 Z " fill="#002E54" transform="translate(356,455)"/>
<path d="M0 0 C1.65 0 3.3 0 5 0 C5 0.33 5 0.66 5 1 C3.35 1 1.7 1 0 1 C0 0.67 0 0.34 0 0 Z " fill="#002A5D" transform="translate(361,454)"/>
<path d="M0 0 C0.33 0 0.66 0 1 0 C1 1.65 1 3.3 1 5 C0.67 5 0.34 5 0 5 C0 3.35 0 1.7 0 0 Z " fill="#004887" transform="translate(178,343)"/>
<path d="M0 0 C0.33 0 0.66 0 1 0 C1 1.65 1 3.3 1 5 C0.67 5 0.34 5 0 5 C0 3.35 0 1.7 0 0 Z " fill="#003790" transform="translate(178,265)"/>
<path d="M0 0 C0.33 0 0.66 0 1 0 C1 1.65 1 3.3 1 5 C0.67 5 0.34 5 0 5 C0 3.35 0 1.7 0 0 Z " fill="#002E65" transform="translate(611,264)"/>
<path d="M0 0 C0.33 0 0.66 0 1 0 C1 1.65 1 3.3 1 5 C0.67 5 0.34 5 0 5 C0 3.35 0 1.7 0 0 Z " fill="#002E6E" transform="translate(179,259)"/>
<path d="M0 0 C0.33 0 0.66 0 1 0 C1 1.65 1 3.3 1 5 C0.67 5 0.34 5 0 5 C0 3.35 0 1.7 0 0 Z " fill="#002E6E" transform="translate(610,258)"/>
<path d="M0 0 C0.33 0 0.66 0 1 0 C1 1.65 1 3.3 1 5 C0.67 5 0.34 5 0 5 C0 3.35 0 1.7 0 0 Z " fill="#000065" transform="translate(620,256)"/>
<path d="M0 0 C1.65 0 3.3 0 5 0 C5 0.33 5 0.66 5 1 C3.35 1 1.7 1 0 1 C0 0.67 0 0.34 0 0 Z " fill="#001D90" transform="translate(531,170)"/>
<path d="M0 0 C1.65 0 3.3 0 5 0 C5 0.33 5 0.66 5 1 C3.35 1 1.7 1 0 1 C0 0.67 0 0.34 0 0 Z " fill="#001D5D" transform="translate(502,170)"/>
<path d="M0 0 C1.65 0 3.3 0 5 0 C5 0.33 5 0.66 5 1 C3.35 1 1.7 1 0 1 C0 0.67 0 0.34 0 0 Z " fill="#001D87" transform="translate(283,170)"/>
<path d="M0 0 C1.65 0 3.3 0 5 0 C5 0.33 5 0.66 5 1 C3.35 1 1.7 1 0 1 C0 0.67 0 0.34 0 0 Z " fill="#001D5D" transform="translate(254,170)"/>
<path d="M0 0 C4 1 4 1 4 1 Z " fill="#004454" transform="translate(290,629)"/>
<path d="M0 0 C0.99 0.495 0.99 0.495 2 1 C1.67 1.66 1.34 2.32 1 3 C0.67 2.01 0.34 1.02 0 0 Z " fill="#000F7F" transform="translate(461,602)"/>
<path d="M0 0 C1 4 1 4 1 4 Z " fill="#002554" transform="translate(235,583)"/>
<path d="M0 0 C1 4 1 4 1 4 Z " fill="#003A6A" transform="translate(555,579)"/>
<path d="M0 0 C1 4 1 4 1 4 Z " fill="#003A6A" transform="translate(234,578)"/>
<path d="M0 0 C0.99 0.495 0.99 0.495 2 1 C1.67 1.66 1.34 2.32 1 3 C0.67 2.01 0.34 1.02 0 0 Z " fill="#00254A" transform="translate(406,505)"/>
<path d="M0 0 C1 4 1 4 1 4 Z " fill="#002A4A" transform="translate(563,498)"/>
<path d="M0 0 C1 4 1 4 1 4 Z " fill="#002554" transform="translate(226,496)"/>
<path d="M0 0 C1 4 1 4 1 4 Z " fill="#002554" transform="translate(564,494)"/>
<path d="M0 0 C1 4 1 4 1 4 Z " fill="#002594" transform="translate(225,492)"/>
<path d="M0 0 C1 4 1 4 1 4 Z " fill="#001554" transform="translate(565,490)"/>
<path d="M0 0 C4 1 4 1 4 1 Z " fill="#FFFFFF" transform="translate(363,468)"/>
<path d="M0 0 C4 1 4 1 4 1 Z " fill="#002554" transform="translate(158,464)"/>
<path d="M0 0 C4 1 4 1 4 1 Z " fill="#FFFFFF" transform="translate(390,462)"/>
<path d="M0 0 C4 1 4 1 4 1 Z " fill="#FFFFFF" transform="translate(418,455)"/>
<path d="M0 0 C4 1 4 1 4 1 Z " fill="#FFFFFF" transform="translate(422,454)"/>
<path d="M0 0 C4 1 4 1 4 1 Z " fill="#003A7F" transform="translate(366,453)"/>
<path d="M0 0 C4 1 4 1 4 1 Z " fill="#FFFFFF" transform="translate(433,451)"/>
<path d="M0 0 C4 1 4 1 4 1 Z " fill="#FFFFFF" transform="translate(440,449)"/>
<path d="M0 0 C4 1 4 1 4 1 Z " fill="#004474" transform="translate(384,449)"/>
<path d="M0 0 C4 1 4 1 4 1 Z " fill="#00445A" transform="translate(393,447)"/>
<path d="M0 0 C4 1 4 1 4 1 Z " fill="#003A4A" transform="translate(397,446)"/>
<path d="M0 0 C4 1 4 1 4 1 Z " fill="#002554" transform="translate(401,445)"/>
<path d="M0 0 C4 1 4 1 4 1 Z " fill="#002554" transform="translate(405,444)"/>
<path d="M0 0 C4 1 4 1 4 1 Z " fill="#002554" transform="translate(409,443)"/>
<path d="M0 0 C4 1 4 1 4 1 Z " fill="#004454" transform="translate(413,442)"/>
<path d="M0 0 C4 1 4 1 4 1 Z " fill="#004454" transform="translate(428,438)"/>
<path d="M0 0 C4 1 4 1 4 1 Z " fill="#003A7F" transform="translate(170,436)"/>
<path d="M0 0 C4 1 4 1 4 1 Z " fill="#002554" transform="translate(166,435)"/>
<path d="M0 0 C4 1 4 1 4 1 Z " fill="#002F5F" transform="translate(162,434)"/>
<path d="M0 0 C4 1 4 1 4 1 Z " fill="#002554" transform="translate(449,432)"/>
<path d="M0 0 C1 4 1 4 1 4 Z " fill="#002574" transform="translate(114,426)"/>
<path d="M0 0 C1 4 1 4 1 4 Z " fill="#003A4A" transform="translate(114,411)"/>
<path d="M0 0 C0 3 0 3 0 3 Z " fill="#002574" transform="translate(151,405)"/>
<path d="M0 0 C1 4 1 4 1 4 Z " fill="#00154A" transform="translate(600,393)"/>
<path d="M0 0 C1 4 1 4 1 4 Z " fill="#002A6A" transform="translate(185,376)"/>
<path d="M0 0 C1 4 1 4 1 4 Z " fill="#002554" transform="translate(183,369)"/>
<path d="M0 0 C1 4 1 4 1 4 Z " fill="#002554" transform="translate(182,364)"/>
<path d="M0 0 C4 1 4 1 4 1 Z " fill="#00007F" transform="translate(155,364)"/>
<path d="M0 0 C1 4 1 4 1 4 Z " fill="#003A4A" transform="translate(181,360)"/>
<path d="M0 0 C1 4 1 4 1 4 Z " fill="#003F7F" transform="translate(180,355)"/>
<path d="M0 0 C0 3 0 3 0 3 Z " fill="#002535" transform="translate(647,303)"/>
<path d="M0 0 C1 4 1 4 1 4 Z " fill="#002A3F" transform="translate(684,297)"/>
<path d="M0 0 C1 4 1 4 1 4 Z " fill="#003A6A" transform="translate(685,293)"/>
<path d="M0 0 C1 4 1 4 1 4 Z " fill="#002594" transform="translate(685,278)"/>
<path d="M0 0 C1 4 1 4 1 4 Z " fill="#002A4A" transform="translate(180,255)"/>
<path d="M0 0 C1 4 1 4 1 4 Z " fill="#002554" transform="translate(181,251)"/>
<path d="M0 0 C1 4 1 4 1 4 Z " fill="#002F3F" transform="translate(607,247)"/>
<path d="M0 0 C4 1 4 1 4 1 Z " fill="#004474" transform="translate(392,219)"/>
<path d="M0 0 C4 1 4 1 4 1 Z " fill="#0025A9" transform="translate(388,218)"/>
<path d="M0 0 C4 1 4 1 4 1 Z " fill="#004454" transform="translate(536,171)"/>
<path d="M0 0 C4 1 4 1 4 1 Z " fill="#002554" transform="translate(498,171)"/>
<path d="M0 0 C4 1 4 1 4 1 Z " fill="#004454" transform="translate(288,171)"/>
<path d="" fill="#001C1C" transform="translate(0,0)"/>
<path d="" fill="#001C46" transform="translate(0,0)"/>
<path d="" fill="#003838" transform="translate(0,0)"/>
<path d="" fill="#00388D" transform="translate(0,0)"/>
<path d="" fill="#001C8D" transform="translate(0,0)"/>
<path d="" fill="#003146" transform="translate(0,0)"/>
<path d="" fill="#003863" transform="translate(0,0)"/>
<path d="" fill="#001C1C" transform="translate(0,0)"/>
<path d="" fill="#001C46" transform="translate(0,0)"/>
<path d="" fill="#001C46" transform="translate(0,0)"/>
<path d="" fill="#001C71" transform="translate(0,0)"/>
<path d="" fill="#001C1C" transform="translate(0,0)"/>
<path d="" fill="#00319B" transform="translate(0,0)"/>
<path d="" fill="#003838" transform="translate(0,0)"/>
<path d="" fill="#001C71" transform="translate(0,0)"/>
<path d="" fill="#00388D" transform="translate(0,0)"/>
<path d="" fill="#003838" transform="translate(0,0)"/>
<path d="" fill="#003838" transform="translate(0,0)"/>
<path d="" fill="#003838" transform="translate(0,0)"/>
<path d="" fill="#001C9B" transform="translate(0,0)"/>
<path d="M0 0 C3 1 3 1 3 1 Z " fill="#00387F" transform="translate(155,463)"/>
<path d="M0 0 C3 1 3 1 3 1 Z " fill="#003F7F" transform="translate(152,462)"/>
<path d="" fill="#004646" transform="translate(0,0)"/>
<path d="M0 0 C3 1 3 1 3 1 Z " fill="#0015A9" transform="translate(146,460)"/>
<path d="" fill="#001C46" transform="translate(0,0)"/>
<path d="M0 0 C3 1 3 1 3 1 Z " fill="#FFFFFF" transform="translate(430,452)"/>
<path d="M0 0 C3 1 3 1 3 1 Z " fill="#FFFFFF" transform="translate(437,450)"/>
<path d="" fill="#001C46" transform="translate(0,0)"/>
<path d="M0 0 C3 1 3 1 3 1 Z " fill="#FFFFFF" transform="translate(444,448)"/>
<path d="M0 0 C3 1 3 1 3 1 Z " fill="#FFFFFF" transform="translate(451,446)"/>
<path d="M0 0 C3 1 3 1 3 1 Z " fill="#FFFFFF" transform="translate(454,445)"/>
<path d="" fill="#001C46" transform="translate(0,0)"/>
<path d="M0 0 C3 1 3 1 3 1 Z " fill="#FFFFFF" transform="translate(461,443)"/>
<path d="M0 0 C3 1 3 1 3 1 Z " fill="#FFFFFF" transform="translate(464,442)"/>
<path d="M0 0 C3 1 3 1 3 1 Z " fill="#FFFFFF" transform="translate(467,441)"/>
<path d="M0 0 C3 1 3 1 3 1 Z " fill="#FFFFFF" transform="translate(470,440)"/>
<path d="" fill="#004646" transform="translate(0,0)"/>
<path d="M0 0 C3 1 3 1 3 1 Z " fill="#00387F" transform="translate(432,437)"/>
<path d="M0 0 C3 1 3 1 3 1 Z " fill="#003171" transform="translate(439,435)"/>
<path d="" fill="#003838" transform="translate(0,0)"/>
<path d="M0 0 C3 1 3 1 3 1 Z " fill="#00389B" transform="translate(446,433)"/>
<path d="M0 0 C3 1 3 1 3 1 Z " fill="#00157F" transform="translate(159,433)"/>
<path d="M0 0 C3 1 3 1 3 1 Z " fill="#FFFFFF" transform="translate(497,431)"/>
<path d="M0 0 C3 1 3 1 3 1 Z " fill="#00319B" transform="translate(453,431)"/>
<path d="" fill="#001C63" transform="translate(0,0)"/>
<path d="M0 0 C3 1 3 1 3 1 Z " fill="#FFFFFF" transform="translate(500,430)"/>
<path d="M0 0 C3 1 3 1 3 1 Z " fill="#003171" transform="translate(456,430)"/>
<path d="" fill="#001CC6" transform="translate(0,0)"/>
<path d="M0 0 C3 1 3 1 3 1 Z " fill="#00319B" transform="translate(459,429)"/>
<path d="" fill="#003838" transform="translate(0,0)"/>
<path d="M0 0 C3 1 3 1 3 1 Z " fill="#003855" transform="translate(466,427)"/>
<path d="M0 0 C3 1 3 1 3 1 Z " fill="#FFFFFF" transform="translate(511,426)"/>
<path d="" fill="#001C71" transform="translate(0,0)"/>
<path d="M0 0 C3 1 3 1 3 1 Z " fill="#003F7F" transform="translate(472,425)"/>
<path d="" fill="#001C46" transform="translate(0,0)"/>
<path d="M0 0 C3 1 3 1 3 1 Z " fill="#00157F" transform="translate(475,424)"/>
<path d="M0 0 C3 1 3 1 3 1 Z " fill="#FFFFFF" transform="translate(519,423)"/>
<path d="M0 0 C3 1 3 1 3 1 Z " fill="#00157F" transform="translate(478,423)"/>
<path d="M0 0 C3 1 3 1 3 1 Z " fill="#0015A9" transform="translate(484,421)"/>
<path d="" fill="#001C46" transform="translate(0,0)"/>
<path d="" fill="#003838" transform="translate(0,0)"/>
<path d="M0 0 C3 1 3 1 3 1 Z " fill="#00157F" transform="translate(490,419)"/>
<path d="M0 0 C3 1 3 1 3 1 Z " fill="#00157F" transform="translate(493,418)"/>
<path d="" fill="#001C71" transform="translate(0,0)"/>
<path d="M0 0 C3 1 3 1 3 1 Z " fill="#00157F" transform="translate(507,413)"/>
<path d="" fill="#004646" transform="translate(0,0)"/>
<path d="M0 0 C3 1 3 1 3 1 Z " fill="#003146" transform="translate(510,412)"/>
<path d="" fill="#001CC6" transform="translate(0,0)"/>
<path d="M0 0 C3 1 3 1 3 1 Z " fill="#003F3F" transform="translate(518,409)"/>
<path d="" fill="#004646" transform="translate(0,0)"/>
<path d="" fill="#003F7F" transform="translate(0,0)"/>
<path d="" fill="#001CC6" transform="translate(0,0)"/>
<path d="" fill="#001C71" transform="translate(0,0)"/>
<path d="" fill="#001C63" transform="translate(0,0)"/>
<path d="" fill="#001C46" transform="translate(0,0)"/>
<path d="" fill="#001C63" transform="translate(0,0)"/>
<path d="" fill="#001C63" transform="translate(0,0)"/>
<path d="" fill="#00157F" transform="translate(0,0)"/>
<path d="" fill="#00469B" transform="translate(0,0)"/>
<path d="" fill="#003838" transform="translate(0,0)"/>
<path d="" fill="#004646" transform="translate(0,0)"/>
<path d="" fill="#001C71" transform="translate(0,0)"/>
<path d="" fill="#001C46" transform="translate(0,0)"/>
<path d="" fill="#003863" transform="translate(0,0)"/>
<path d="" fill="#001C8D" transform="translate(0,0)"/>
<path d="M0 0 C3 1 3 1 3 1 Z " fill="#003171" transform="translate(633,273)"/>
<path d="" fill="#0015A9" transform="translate(0,0)"/>
<path d="" fill="#003171" transform="translate(0,0)"/>
<path d="" fill="#003838" transform="translate(0,0)"/>
<path d="" fill="#003863" transform="translate(0,0)"/>
<path d="" fill="#003855" transform="translate(0,0)"/>
<path d="M0 0 C3 1 3 1 3 1 Z " fill="#00314D" transform="translate(648,246)"/>
<path d="" fill="#003F7F" transform="translate(0,0)"/>
<path d="M0 0 C3 1 3 1 3 1 Z " fill="#0038AA" transform="translate(645,245)"/>
<path d="" fill="#003838" transform="translate(0,0)"/>
<path d="" fill="#001C63" transform="translate(0,0)"/>
<path d="" fill="#003838" transform="translate(0,0)"/>
<path d="" fill="#001CE2" transform="translate(0,0)"/>
<path d="" fill="#003838" transform="translate(0,0)"/>
<path d="" fill="#001C46" transform="translate(0,0)"/>
<path d="" fill="#001C71" transform="translate(0,0)"/>
<path d="" fill="#001C71" transform="translate(0,0)"/>
<path d="M0 0 C3 1 3 1 3 1 Z " fill="#003146" transform="translate(403,216)"/>
<path d="M0 0 C3 1 3 1 3 1 Z " fill="#00314D" transform="translate(374,214)"/>
<path d="M0 0 C3 1 3 1 3 1 Z " fill="#003FA9" transform="translate(421,210)"/>
<path d="M0 0 C3 1 3 1 3 1 Z " fill="#00319B" transform="translate(295,173)"/>
<path d="M0 0 C3 1 3 1 3 1 Z " fill="#003855" transform="translate(540,172)"/>
<path d="M0 0 C3 1 3 1 3 1 Z " fill="#003146" transform="translate(495,172)"/>
<path d="M0 0 C3 1 3 1 3 1 Z " fill="#0038AA" transform="translate(292,172)"/>
<path d="M0 0 C3 1 3 1 3 1 Z " fill="#003171" transform="translate(251,171)"/>
<path d="M0 0 C2 1 2 1 2 1 Z " fill="#002A7F" transform="translate(299,626)"/>
<path d="" fill="#0000BF" transform="translate(0,0)"/>
<path d="" fill="#002AAA" transform="translate(0,0)"/>
<path d="" fill="#003F3F" transform="translate(0,0)"/>
<path d="" fill="#002AAA" transform="translate(0,0)"/>
<path d="" fill="#002A6A" transform="translate(0,0)"/>
<path d="" fill="#002A94" transform="translate(0,0)"/>
<path d="" fill="#003F7F" transform="translate(0,0)"/>
<path d="" fill="#002AAA" transform="translate(0,0)"/>
<path d="" fill="#002A6A" transform="translate(0,0)"/>
<path d="" fill="#00007F" transform="translate(0,0)"/>
<path d="" fill="#00003F" transform="translate(0,0)"/>
<path d="" fill="#002A94" transform="translate(0,0)"/>
<path d="" fill="#002A2A" transform="translate(0,0)"/>
<path d="" fill="#002A55" transform="translate(0,0)"/>
<path d="" fill="#0000BF" transform="translate(0,0)"/>
<path d="" fill="#003FBF" transform="translate(0,0)"/>
<path d="" fill="#003F7F" transform="translate(0,0)"/>
<path d="" fill="#002A2A" transform="translate(0,0)"/>
<path d="" fill="#001F3F" transform="translate(0,0)"/>
<path d="" fill="#007FBF" transform="translate(0,0)"/>
<path d="" fill="#00007F" transform="translate(0,0)"/>
<path d="" fill="#002A2A" transform="translate(0,0)"/>
<path d="" fill="#002A2A" transform="translate(0,0)"/>
<path d="" fill="#0000BF" transform="translate(0,0)"/>
<path d="" fill="#002A55" transform="translate(0,0)"/>
<path d="" fill="#00007F" transform="translate(0,0)"/>
<path d="" fill="#002AAA" transform="translate(0,0)"/>
<path d="" fill="#00002A" transform="translate(0,0)"/>
<path d="" fill="#002A6A" transform="translate(0,0)"/>
<path d="" fill="#002A6A" transform="translate(0,0)"/>
<path d="" fill="#002A2A" transform="translate(0,0)"/>
<path d="" fill="#002A6A" transform="translate(0,0)"/>
<path d="" fill="#002A6A" transform="translate(0,0)"/>
<path d="" fill="#002A2A" transform="translate(0,0)"/>
<path d="" fill="#002AAA" transform="translate(0,0)"/>
<path d="" fill="#002A6A" transform="translate(0,0)"/>
<path d="" fill="#002A2A" transform="translate(0,0)"/>
<path d="" fill="#003F7F" transform="translate(0,0)"/>
<path d="" fill="#002A6A" transform="translate(0,0)"/>
<path d="" fill="#002A2A" transform="translate(0,0)"/>
<path d="" fill="#003F7F" transform="translate(0,0)"/>
<path d="" fill="#002A6A" transform="translate(0,0)"/>
<path d="" fill="#002A2A" transform="translate(0,0)"/>
<path d="" fill="#002A6A" transform="translate(0,0)"/>
<path d="" fill="#002AAA" transform="translate(0,0)"/>
<path d="" fill="#002A2A" transform="translate(0,0)"/>
<path d="" fill="#002A6A" transform="translate(0,0)"/>
<path d="" fill="#002A6A" transform="translate(0,0)"/>
<path d="" fill="#002A2A" transform="translate(0,0)"/>
<path d="" fill="#00007F" transform="translate(0,0)"/>
<path d="" fill="#002A2A" transform="translate(0,0)"/>
<path d="" fill="#002A6A" transform="translate(0,0)"/>
<path d="" fill="#002A2A" transform="translate(0,0)"/>
<path d="" fill="#002A6A" transform="translate(0,0)"/>
<path d="" fill="#002AD4" transform="translate(0,0)"/>
<path d="" fill="#002A2A" transform="translate(0,0)"/>
<path d="" fill="#002AAA" transform="translate(0,0)"/>
<path d="" fill="#002AD4" transform="translate(0,0)"/>
<path d="" fill="#002A2A" transform="translate(0,0)"/>
<path d="" fill="#002A2A" transform="translate(0,0)"/>
<path d="" fill="#002AD4" transform="translate(0,0)"/>
<path d="" fill="#002AAA" transform="translate(0,0)"/>
<path d="" fill="#002A55" transform="translate(0,0)"/>
<path d="" fill="#002A6A" transform="translate(0,0)"/>
<path d="" fill="#002A55" transform="translate(0,0)"/>
<path d="" fill="#0000BF" transform="translate(0,0)"/>
<path d="" fill="#002A6A" transform="translate(0,0)"/>
<path d="" fill="#002A55" transform="translate(0,0)"/>
<path d="" fill="#002A55" transform="translate(0,0)"/>
<path d="" fill="#002A94" transform="translate(0,0)"/>
<path d="" fill="#002AAA" transform="translate(0,0)"/>
<path d="" fill="#001F3F" transform="translate(0,0)"/>
<path d="" fill="#002A55" transform="translate(0,0)"/>
<path d="" fill="#002A55" transform="translate(0,0)"/>
<path d="" fill="#000000" transform="translate(0,0)"/>
<path d="" fill="#002A94" transform="translate(0,0)"/>
<path d="" fill="#002A6A" transform="translate(0,0)"/>
<path d="" fill="#002AAA" transform="translate(0,0)"/>
<path d="M0 0 C2 1 2 1 2 1 Z " fill="#005555" transform="translate(144,459)"/>
<path d="" fill="#002A6A" transform="translate(0,0)"/>
<path d="" fill="#002A6A" transform="translate(0,0)"/>
<path d="" fill="#002A6A" transform="translate(0,0)"/>
<path d="" fill="#002A6A" transform="translate(0,0)"/>
<path d="" fill="#002A2A" transform="translate(0,0)"/>
<path d="" fill="#002A6A" transform="translate(0,0)"/>
<path d="" fill="#002AD4" transform="translate(0,0)"/>
<path d="" fill="#002AAA" transform="translate(0,0)"/>
<path d="" fill="#002A6A" transform="translate(0,0)"/>
<path d="" fill="#002AAA" transform="translate(0,0)"/>
<path d="M0 0 C2 1 2 1 2 1 Z " fill="#005555" transform="translate(152,430)"/>
<path d="" fill="#002A6A" transform="translate(0,0)"/>
<path d="" fill="#002A6A" transform="translate(0,0)"/>
<path d="" fill="#002A6A" transform="translate(0,0)"/>
<path d="" fill="#002A94" transform="translate(0,0)"/>
<path d="" fill="#002A6A" transform="translate(0,0)"/>
<path d="M0 0 C2 1 2 1 2 1 Z " fill="#00557F" transform="translate(502,415)"/>
<path d="" fill="#002A94" transform="translate(0,0)"/>
<path d="" fill="#002A6A" transform="translate(0,0)"/>
<path d="" fill="#002A6A" transform="translate(0,0)"/>
<path d="" fill="#006A6A" transform="translate(0,0)"/>
<path d="" fill="#001F3F" transform="translate(0,0)"/>
<path d="M0 0 C2 1 2 1 2 1 Z " fill="#0055AA" transform="translate(521,408)"/>
<path d="" fill="#002A94" transform="translate(0,0)"/>
<path d="" fill="#002A94" transform="translate(0,0)"/>
<path d="" fill="#002A6A" transform="translate(0,0)"/>
<path d="" fill="#002A6A" transform="translate(0,0)"/>
<path d="" fill="#002A94" transform="translate(0,0)"/>
<path d="" fill="#002AAA" transform="translate(0,0)"/>
<path d="" fill="#002A94" transform="translate(0,0)"/>
<path d="" fill="#002A2A" transform="translate(0,0)"/>
<path d="" fill="#002A94" transform="translate(0,0)"/>
<path d="" fill="#002A55" transform="translate(0,0)"/>
<path d="" fill="#00007F" transform="translate(0,0)"/>
<path d="" fill="#002A2A" transform="translate(0,0)"/>
<path d="M0 0 C2 1 2 1 2 1 Z " fill="#001F7F" transform="translate(579,383)"/>
<path d="M0 0 C2 1 2 1 2 1 Z " fill="#006A94" transform="translate(593,376)"/>
<path d="M0 0 C2 1 2 1 2 1 Z " fill="#003F6A" transform="translate(595,375)"/>
<path d="" fill="#003F7F" transform="translate(0,0)"/>
<path d="" fill="#002AAA" transform="translate(0,0)"/>
<path d="" fill="#002A2A" transform="translate(0,0)"/>
<path d="" fill="#003F7F" transform="translate(0,0)"/>
<path d="" fill="#0000BF" transform="translate(0,0)"/>
<path d="" fill="#003F7F" transform="translate(0,0)"/>
<path d="" fill="#002A6A" transform="translate(0,0)"/>
<path d="" fill="#001F3F" transform="translate(0,0)"/>
<path d="" fill="#002AD4" transform="translate(0,0)"/>
<path d="" fill="#002A55" transform="translate(0,0)"/>
<path d="" fill="#002A6A" transform="translate(0,0)"/>
<path d="" fill="#003F7F" transform="translate(0,0)"/>
<path d="" fill="#002AAA" transform="translate(0,0)"/>
<path d="" fill="#00007F" transform="translate(0,0)"/>
<path d="" fill="#0000BF" transform="translate(0,0)"/>
<path d="" fill="#002A2A" transform="translate(0,0)"/>
<path d="" fill="#003F3F" transform="translate(0,0)"/>
<path d="M0 0 C2 1 2 1 2 1 Z " fill="#0055AA" transform="translate(651,247)"/>
<path d="" fill="#002A6A" transform="translate(0,0)"/>
<path d="" fill="#002A6A" transform="translate(0,0)"/>
<path d="" fill="#002A6A" transform="translate(0,0)"/>
<path d="" fill="#002A6A" transform="translate(0,0)"/>
<path d="" fill="#002AAA" transform="translate(0,0)"/>
<path d="" fill="#002A2A" transform="translate(0,0)"/>
<path d="" fill="#002A6A" transform="translate(0,0)"/>
<path d="" fill="#002A6A" transform="translate(0,0)"/>
<path d="" fill="#002A2A" transform="translate(0,0)"/>
<path d="" fill="#002A6A" transform="translate(0,0)"/>
<path d="" fill="#002A6A" transform="translate(0,0)"/>
<path d="" fill="#0000BF" transform="translate(0,0)"/>
<path d="" fill="#002A2A" transform="translate(0,0)"/>
<path d="" fill="#002A6A" transform="translate(0,0)"/>
<path d="" fill="#002A2A" transform="translate(0,0)"/>
<path d="" fill="#002A55" transform="translate(0,0)"/>
<path d="" fill="#002AAA" transform="translate(0,0)"/>
<path d="" fill="#002A2A" transform="translate(0,0)"/>
<path d="" fill="#0000BF" transform="translate(0,0)"/>
<path d="" fill="#002A2A" transform="translate(0,0)"/>
<path d="" fill="#00007F" transform="translate(0,0)"/>
<path d="M0 0 C2 1 2 1 2 1 Z " fill="#006A6A" transform="translate(354,206)"/>
<path d="M0 0 C2 1 2 1 2 1 Z " fill="#00557F" transform="translate(352,205)"/>
<path d="M0 0 C2 1 2 1 2 1 Z " fill="#005555" transform="translate(350,204)"/>
<path d="M0 0 C2 1 2 1 2 1 Z " fill="#005555" transform="translate(348,203)"/>
<path d="M0 0 C2 1 2 1 2 1 Z " fill="#006A6A" transform="translate(346,202)"/>
<path d="M0 0 C2 1 2 1 2 1 Z " fill="#00557F" transform="translate(344,201)"/>
<path d="M0 0 C2 1 2 1 2 1 Z " fill="#00557F" transform="translate(456,194)"/>
<path d="M0 0 C2 1 2 1 2 1 Z " fill="#005555" transform="translate(330,193)"/>
<path d="M0 0 C2 1 2 1 2 1 Z " fill="#005555" transform="translate(556,179)"/>
<path d="M0 0 C2 1 2 1 2 1 Z " fill="#006A6A" transform="translate(234,178)"/>
<path d="M0 0 C2 1 2 1 2 1 Z " fill="#00557F" transform="translate(236,177)"/>
<path d="M0 0 C2 1 2 1 2 1 Z " fill="#006A6A" transform="translate(238,176)"/>
<path d="M0 0 C2 1 2 1 2 1 Z " fill="#004A6A" transform="translate(240,175)"/>
<path d="M0 0 C2 1 2 1 2 1 Z " fill="#00557F" transform="translate(298,174)"/>
<path d="" fill="#003F3F" transform="translate(0,0)"/>
<path d="" fill="#007F7F" transform="translate(0,0)"/>
<path d="" fill="#0055AA" transform="translate(0,0)"/>
<path d="" fill="#00007F" transform="translate(0,0)"/>
<path d="" fill="#003F7F" transform="translate(0,0)"/>
<path d="" fill="#00007F" transform="translate(0,0)"/>
<path d="" fill="#005555" transform="translate(0,0)"/>
<path d="" fill="#0055AA" transform="translate(0,0)"/>
<path d="" fill="#003F3F" transform="translate(0,0)"/>
<path d="" fill="#003F7F" transform="translate(0,0)"/>
<path d="" fill="#003F7F" transform="translate(0,0)"/>
<path d="" fill="#003F7F" transform="translate(0,0)"/>
<path d="" fill="#003F7F" transform="translate(0,0)"/>
<path d="" fill="#003F7F" transform="translate(0,0)"/>
<path d="" fill="#005555" transform="translate(0,0)"/>
<path d="" fill="#005555" transform="translate(0,0)"/>
<path d="" fill="#003F7F" transform="translate(0,0)"/>
<path d="" fill="#003F7F" transform="translate(0,0)"/>
<path d="" fill="#003F7F" transform="translate(0,0)"/>
<path d="" fill="#003F7F" transform="translate(0,0)"/>
<path d="" fill="#003F7F" transform="translate(0,0)"/>
<path d="" fill="#003F7F" transform="translate(0,0)"/>
<path d="" fill="#0055AA" transform="translate(0,0)"/>
<path d="" fill="#005555" transform="translate(0,0)"/>
<path d="" fill="#003F7F" transform="translate(0,0)"/>
<path d="" fill="#003F7F" transform="translate(0,0)"/>
<path d="" fill="#003F7F" transform="translate(0,0)"/>
<path d="" fill="#003F7F" transform="translate(0,0)"/>
<path d="" fill="#005555" transform="translate(0,0)"/>
<path d="" fill="#003F7F" transform="translate(0,0)"/>
<path d="" fill="#005555" transform="translate(0,0)"/>
<path d="" fill="#005555" transform="translate(0,0)"/>
<path d="" fill="#003F7F" transform="translate(0,0)"/>
<path d="" fill="#00007F" transform="translate(0,0)"/>
<path d="" fill="#005555" transform="translate(0,0)"/>
<path d="" fill="#005555" transform="translate(0,0)"/>
<path d="" fill="#005555" transform="translate(0,0)"/>
<path d="" fill="#003F7F" transform="translate(0,0)"/>
<path d="" fill="#005555" transform="translate(0,0)"/>
<path d="" fill="#003F7F" transform="translate(0,0)"/>
<path d="" fill="#005555" transform="translate(0,0)"/>
<path d="" fill="#005555" transform="translate(0,0)"/>
<path d="" fill="#003F7F" transform="translate(0,0)"/>
<path d="" fill="#005555" transform="translate(0,0)"/>
<path d="" fill="#005555" transform="translate(0,0)"/>
<path d="" fill="#007F7F" transform="translate(0,0)"/>
<path d="" fill="#003F3F" transform="translate(0,0)"/>
<path d="" fill="#0055AA" transform="translate(0,0)"/>
<path d="" fill="#0055AA" transform="translate(0,0)"/>
<path d="" fill="#005555" transform="translate(0,0)"/>
<path d="" fill="#005555" transform="translate(0,0)"/>
<path d="" fill="#005555" transform="translate(0,0)"/>
<path d="" fill="#005555" transform="translate(0,0)"/>
<path d="" fill="#005555" transform="translate(0,0)"/>
<path d="" fill="#005555" transform="translate(0,0)"/>
<path d="" fill="#005555" transform="translate(0,0)"/>
<path d="" fill="#005555" transform="translate(0,0)"/>
<path d="" fill="#005555" transform="translate(0,0)"/>
<path d="" fill="#005555" transform="translate(0,0)"/>
<path d="" fill="#005555" transform="translate(0,0)"/>
<path d="" fill="#005555" transform="translate(0,0)"/>
<path d="" fill="#005555" transform="translate(0,0)"/>
<path d="" fill="#005555" transform="translate(0,0)"/>
<path d="" fill="#003F7F" transform="translate(0,0)"/>
<path d="" fill="#003F7F" transform="translate(0,0)"/>
<path d="" fill="#007F7F" transform="translate(0,0)"/>
<path d="" fill="#003F7F" transform="translate(0,0)"/>
<path d="" fill="#005555" transform="translate(0,0)"/>
<path d="" fill="#003366" transform="translate(0,0)"/>
<path d="" fill="#003F7F" transform="translate(0,0)"/>
<path d="" fill="#003F7F" transform="translate(0,0)"/>
<path d="" fill="#003F7F" transform="translate(0,0)"/>
<path d="" fill="#00007F" transform="translate(0,0)"/>
<path d="" fill="#00007F" transform="translate(0,0)"/>
<path d="" fill="#005555" transform="translate(0,0)"/>
<path d="" fill="#005555" transform="translate(0,0)"/>
<path d="" fill="#005555" transform="translate(0,0)"/>
<path d="" fill="#003366" transform="translate(0,0)"/>
<path d="" fill="#003F7F" transform="translate(0,0)"/>
<path d="" fill="#003F7F" transform="translate(0,0)"/>
<path d="" fill="#0055AA" transform="translate(0,0)"/>
<path d="" fill="#0055AA" transform="translate(0,0)"/>
<path d="" fill="#000055" transform="translate(0,0)"/>
<path d="" fill="#0055AA" transform="translate(0,0)"/>
<path d="" fill="#003F3F" transform="translate(0,0)"/>
<path d="" fill="#003F7F" transform="translate(0,0)"/>
<path d="" fill="#000055" transform="translate(0,0)"/>
<path d="" fill="#003F7F" transform="translate(0,0)"/>
<path d="" fill="#005555" transform="translate(0,0)"/>
<path d="" fill="#003F7F" transform="translate(0,0)"/>
<path d="" fill="#0055AA" transform="translate(0,0)"/>
<path d="" fill="#005555" transform="translate(0,0)"/>
<path d="" fill="#007F7F" transform="translate(0,0)"/>
<path d="" fill="#005555" transform="translate(0,0)"/>
<path d="" fill="#00007F" transform="translate(0,0)"/>
<path d="" fill="#003F7F" transform="translate(0,0)"/>
<path d="" fill="#003F7F" transform="translate(0,0)"/>
<path d="" fill="#000055" transform="translate(0,0)"/>
<path d="" fill="#0055AA" transform="translate(0,0)"/>
<path d="" fill="#0055AA" transform="translate(0,0)"/>
<path d="" fill="#0055AA" transform="translate(0,0)"/>
<path d="" fill="#003F7F" transform="translate(0,0)"/>
<path d="" fill="#0055AA" transform="translate(0,0)"/>
<path d="" fill="#0055AA" transform="translate(0,0)"/>
<path d="" fill="#005555" transform="translate(0,0)"/>
<path d="" fill="#005555" transform="translate(0,0)"/>
<path d="" fill="#005555" transform="translate(0,0)"/>
<path d="" fill="#0000FF" transform="translate(0,0)"/>
<path d="" fill="#00007F" transform="translate(0,0)"/>
<path d="" fill="#003F7F" transform="translate(0,0)"/>
<path d="" fill="#000055" transform="translate(0,0)"/>
<path d="" fill="#0055AA" transform="translate(0,0)"/>
<path d="" fill="#003F7F" transform="translate(0,0)"/>
<path d="" fill="#003F7F" transform="translate(0,0)"/>
<path d="" fill="#003F7F" transform="translate(0,0)"/>
<path d="" fill="#003F7F" transform="translate(0,0)"/>
<path d="" fill="#003F7F" transform="translate(0,0)"/>
<path d="" fill="#005555" transform="translate(0,0)"/>
<path d="" fill="#005555" transform="translate(0,0)"/>
<path d="" fill="#0055AA" transform="translate(0,0)"/>
<path d="" fill="#0055AA" transform="translate(0,0)"/>
<path d="" fill="#003F7F" transform="translate(0,0)"/>
<path d="" fill="#0055AA" transform="translate(0,0)"/>
<path d="" fill="#003F7F" transform="translate(0,0)"/>
<path d="" fill="#0055AA" transform="translate(0,0)"/>
<path d="" fill="#000055" transform="translate(0,0)"/>
<path d="" fill="#007F7F" transform="translate(0,0)"/>
<path d="" fill="#003F7F" transform="translate(0,0)"/>
<path d="" fill="#003F7F" transform="translate(0,0)"/>
<path d="" fill="#003F7F" transform="translate(0,0)"/>
<path d="" fill="#003F7F" transform="translate(0,0)"/>
<path d="" fill="#005555" transform="translate(0,0)"/>
<path d="" fill="#003F7F" transform="translate(0,0)"/>
<path d="" fill="#005555" transform="translate(0,0)"/>
<path d="" fill="#005555" transform="translate(0,0)"/>
<path d="" fill="#003F7F" transform="translate(0,0)"/>
<path d="" fill="#003F7F" transform="translate(0,0)"/>
<path d="" fill="#003366" transform="translate(0,0)"/>
<path d="" fill="#003366" transform="translate(0,0)"/>
<path d="" fill="#003366" transform="translate(0,0)"/>
<path d="" fill="#007F7F" transform="translate(0,0)"/>
<path d="" fill="#003F7F" transform="translate(0,0)"/>
<path d="" fill="#005555" transform="translate(0,0)"/>
<path d="" fill="#0055AA" transform="translate(0,0)"/>
<path d="" fill="#0055AA" transform="translate(0,0)"/>
<path d="" fill="#003F7F" transform="translate(0,0)"/>
<path d="" fill="#005555" transform="translate(0,0)"/>
<path d="" fill="#007F7F" transform="translate(0,0)"/>
<path d="" fill="#005555" transform="translate(0,0)"/>
<path d="" fill="#003F7F" transform="translate(0,0)"/>
<path d="" fill="#003F7F" transform="translate(0,0)"/>
<path d="" fill="#003F7F" transform="translate(0,0)"/>
<path d="" fill="#003F7F" transform="translate(0,0)"/>
<path d="" fill="#003F7F" transform="translate(0,0)"/>
<path d="" fill="#003F7F" transform="translate(0,0)"/>
<path d="" fill="#0055AA" transform="translate(0,0)"/>
<path d="" fill="#005555" transform="translate(0,0)"/>
<path d="" fill="#0000FF" transform="translate(0,0)"/>
<path d="" fill="#005555" transform="translate(0,0)"/>
<path d="" fill="#005555" transform="translate(0,0)"/>
<path d="" fill="#005555" transform="translate(0,0)"/>
<path d="" fill="#005555" transform="translate(0,0)"/>
<path d="" fill="#0055AA" transform="translate(0,0)"/>
<path d="" fill="#005555" transform="translate(0,0)"/>
<path d="" fill="#005555" transform="translate(0,0)"/>
<path d="" fill="#005555" transform="translate(0,0)"/>
<path d="" fill="#005555" transform="translate(0,0)"/>
<path d="" fill="#005555" transform="translate(0,0)"/>
<path d="" fill="#005555" transform="translate(0,0)"/>
<path d="" fill="#003F7F" transform="translate(0,0)"/>
<path d="" fill="#003F7F" transform="translate(0,0)"/>
<path d="" fill="#0055AA" transform="translate(0,0)"/>
<path d="" fill="#005555" transform="translate(0,0)"/>
<path d="" fill="#005555" transform="translate(0,0)"/>
<path d="" fill="#003F7F" transform="translate(0,0)"/>
<path d="" fill="#007F7F" transform="translate(0,0)"/>
<path d="" fill="#003F7F" transform="translate(0,0)"/>
<path d="" fill="#005555" transform="translate(0,0)"/>
<path d="" fill="#003F7F" transform="translate(0,0)"/>
<path d="" fill="#0055AA" transform="translate(0,0)"/>
<path d="" fill="#003F7F" transform="translate(0,0)"/>
<path d="" fill="#005555" transform="translate(0,0)"/>
<path d="" fill="#003F7F" transform="translate(0,0)"/>
<path d="" fill="#000055" transform="translate(0,0)"/>
<path d="" fill="#003F7F" transform="translate(0,0)"/>
<path d="" fill="#005555" transform="translate(0,0)"/>
<path d="" fill="#003F3F" transform="translate(0,0)"/>
<path d="" fill="#005555" transform="translate(0,0)"/>
<path d="" fill="#003F7F" transform="translate(0,0)"/>
<path d="" fill="#003F7F" transform="translate(0,0)"/>
<path d="" fill="#0055AA" transform="translate(0,0)"/>
</svg>
